<svg xmlns="http://www.w3.org/2000/svg" width="800px" height="800px" viewBox="0 0 1024 1024" class="icon" version="1.1"><path d="M395.423289 586.569956H264.283022v-93.843912h527.849245v93.843912H503.330133" fill="#ecd078"/><path d="M676.352 586.569956h-30.845156v-93.843912h146.625423v93.843912h-90.373689" fill="#D95B43"/><path d="M276.627911 586.569956h-12.344889v-93.843912H311.204978v93.843912h-24.416711" fill="#ECD078"/><path d="M520.248889 94.3104c-232.721067 0-421.387378 188.666311-421.387378 421.398756 0 232.721067 188.666311 421.387378 421.387378 421.387377 232.732444 0 421.398756-188.666311 421.398755-421.387377 0-232.732444-188.666311-421.398756-421.398755-421.398756z m0 76.299378a343.586133 343.586133 0 0 1 215.540622 75.605333L250.766222 731.249778a343.608889 343.608889 0 0 1-75.605333-215.540622c0-190.600533 154.498844-345.099378 345.088-345.099378z m0 690.187378a343.586133 343.586133 0 0 1-215.540622-75.616712l485.034666-485.023288a343.586133 343.586133 0 0 1 75.605334 215.540622c0 190.589156-154.498844 345.099378-345.099378 345.099378z" fill="#d95b43"/><path d="M884.849778 276.400356a436.667733 436.667733 0 0 0-184.797867-158.082845 14.677333 14.677333 0 0 0-12.105955 26.715022 407.301689 407.301689 0 0 1 172.396088 147.478756 405.003378 405.003378 0 0 1 66.639645 223.186489c0 224.278756-182.454044 406.721422-406.7328 406.721422-224.267378 0-406.721422-182.442667-406.721422-406.721422 0-224.267378 182.454044-406.7328 406.721422-406.7328 41.870222 0 83.1488 6.337422 122.6752 18.818844a14.654578 14.654578 0 1 0 8.829155-27.9552A436.030578 436.030578 0 0 0 520.248889 79.644444c-116.462933 0-225.974044 45.351822-308.337778 127.715556C129.558756 289.723733 84.195556 399.223467 84.195556 515.697778s45.3632 225.974044 127.715555 308.349155c82.363733 82.352356 191.863467 127.715556 308.337778 127.715556 116.485689 0 225.974044-45.351822 308.349155-127.715556 82.363733-82.363733 127.726933-191.863467 127.726934-308.349155a434.403556 434.403556 0 0 0-71.4752-239.297422z" fill=""/><path d="M850.693689 515.697778c0 182.215111-148.229689 330.433422-330.4448 330.433422-12.0832 0-24.280178-0.671289-36.226845-1.956978a14.677333 14.677333 0 0 0-3.1744 29.161245 366.592 366.592 0 0 0 39.401245 2.139022c198.382933 0 359.765333-161.393778 359.765333-359.765333 0-82.614044-27.261156-160.312889-78.825244-224.711112a14.654578 14.654578 0 0 0-21.8112-1.206044L294.343111 774.826667a14.631822 14.631822 0 0 0 1.206045 21.8112 357.205333 357.205333 0 0 0 125.474133 64.955733 14.677333 14.677333 0 0 0 8.078222-28.194133 327.543467 327.543467 0 0 1-102.161067-49.698134L603.249778 507.380622h27.602489v64.512h-68.7104a14.677333 14.677333 0 0 0 0 29.320534h83.285333l0.079644 0.011377 0.079645-0.011377h146.557155c8.0896 0 14.665956-6.5536 14.665956-14.654578v-93.843911a14.677333 14.677333 0 0 0-14.665956-14.665956H632.581689L788.252444 322.366578c40.903111 56.467911 62.441244 122.959644 62.441245 193.3312z m-73.227378 56.206222h-117.304889v-64.512h117.304889v64.512zM744.96 234.757689c-64.386844-51.564089-142.085689-78.813867-224.711111-78.813867-198.371556 0-359.765333 161.3824-359.765333 359.753956 0 82.614044 27.261156 160.324267 78.825244 224.711111 2.605511 3.254044 6.473956 5.245156 10.638222 5.472711l0.807822 0.022756c3.868444 0 7.600356-1.547378 10.365156-4.3008l485.023289-485.034667a14.631822 14.631822 0 0 0-1.183289-21.8112zM278.948978 571.904v-64.512h17.590044v64.512h-17.590044z m46.921955-64.523378h128.011378l-64.512 64.512h-63.499378v-64.512z m157.331911-29.320533H264.283022c-8.100978 0-14.665956 6.564978-14.665955 14.665955v93.843912c0 8.100978 6.564978 14.654578 14.665955 14.654577h95.755378l-107.781689 107.793067c-40.903111-56.456533-62.429867-122.948267-62.429867-193.308444 0-182.203733 148.229689-330.433422 330.433423-330.433423 70.382933 0 136.863289 21.538133 193.308444 62.429867L483.202844 478.060089z" fill=""/><path d="M342.198044 303.866311a14.665956 14.665956 0 1 0-29.331911 0c0 7.008711-1.536 9.819022-4.073244 14.472533-3.231289 5.927822-7.657244 14.040178-7.657245 28.524089s4.425956 22.607644 7.657245 28.524089c2.537244 4.653511 4.073244 7.463822 4.073244 14.483911 0 7.008711-1.536 9.819022-4.073244 14.483911-3.231289 5.927822-7.657244 14.0288-7.657245 28.524089a14.665956 14.665956 0 1 0 29.331912 0c0-7.008711 1.536-9.819022 4.073244-14.472533 3.231289-5.927822 7.657244-14.040178 7.657244-28.524089 0-14.495289-4.425956-22.607644-7.657244-28.524089-2.537244-4.653511-4.073244-7.463822-4.073244-14.483911s1.536-9.8304 4.073244-14.483911c3.231289-5.927822 7.657244-14.040178 7.657244-28.524089z" fill=""/></svg>