<?xml version="1.0" encoding="UTF-8" standalone="no"?> <!-- Created with Vectornator for iOS (http://vectornator.io/) --><!DOCTYPE svg PUBLIC "-//W3C//DTD SVG 1.1//EN" "http://www.w3.org/Graphics/SVG/1.1/DTD/svg11.dtd">
<svg height="100%" style="fill-rule:nonzero;clip-rule:evenodd;stroke-linecap:round;stroke-linejoin:round;" xmlns:xlink="http://www.w3.org/1999/xlink" xmlns="http://www.w3.org/2000/svg" xml:space="preserve" width="100%" xmlns:vectornator="http://vectornator.io" version="1.1" viewBox="0 0 1024 768">
<metadata>
<vectornator:setting key="DimensionsVisible" value="1"/>
<vectornator:setting key="PencilOnly" value="0"/>
<vectornator:setting key="SnapToPoints" value="0"/>
<vectornator:setting key="OutlineMode" value="0"/>
<vectornator:setting key="CMYKEnabledKey" value="0"/>
<vectornator:setting key="RulersVisible" value="1"/>
<vectornator:setting key="SnapToEdges" value="0"/>
<vectornator:setting key="GuidesVisible" value="1"/>
<vectornator:setting key="DisplayWhiteBackground" value="0"/>
<vectornator:setting key="doHistoryDisabled" value="0"/>
<vectornator:setting key="TimeLapseWatermarkDisabled" value="0"/>
<vectornator:setting key="SnapToGuides" value="1"/>
<vectornator:setting key="Units" value="Pixels"/>
<vectornator:setting key="DynamicGuides" value="0"/>
<vectornator:setting key="SnapToGrid" value="0"/>
<vectornator:setting key="IsolateActiveLayer" value="0"/>
</metadata>
<defs/>
<g id="background" vectornator:layerName="background">
<g opacity="1">
<path d="M-15.1672-29.9565L84.8328-29.9565L84.8328-9.9565L-15.1672-9.9565L-15.1672-29.9565Z" opacity="1" fill="#000000"/>
<path d="M84.9244-30L184.924-30L184.924-10L84.9244-10L84.9244-30Z" opacity="1" fill="#000000"/>
<path d="M184.924-30L284.924-30L284.924-10L184.924-10L184.924-30Z" opacity="1" fill="#000000"/>
<path d="M-65-10L35-10L35+10L-65+10L-65-10Z" opacity="1" fill="#000000"/>
<path d="M34.9244-10L134.924-10L134.924+10L34.9244+10L34.9244-10Z" opacity="1" fill="#000000"/>
<path d="M134.924-10L234.924-10L234.924+10L134.924+10L134.924-10Z" opacity="1" fill="#000000"/>
<path d="M234.924-10L334.924-10L334.924+10L234.924+10L234.924-10Z" opacity="1" fill="#000000"/>
<path d="M284.924-30L384.924-30L384.924-10L284.924-10L284.924-30Z" opacity="1" fill="#000000"/>
<path d="M334.924-10L434.924-10L434.924+10L334.924+10L334.924-10Z" opacity="1" fill="#000000"/>
<path d="M384.924-30L484.924-30L484.924-10L384.924-10L384.924-30Z" opacity="1" fill="#000000"/>
<path d="M435-10L535-10L535+10L435+10L435-10Z" opacity="1" fill="#000000"/>
<path d="M485-30L585-30L585-10L485-10L485-30Z" opacity="1" fill="#000000"/>
<path d="M535-10L635-10L635+10L535+10L535-10Z" opacity="1" fill="#000000"/>
<path d="M585-30L685-30L685-10L585-10L585-30Z" opacity="1" fill="#000000"/>
<path d="M635-10L735-10L735+10L635+10L635-10Z" opacity="1" fill="#000000"/>
<path d="M735-10L835-10L835+10L735+10L735-10Z" opacity="1" fill="#000000"/>
<path d="M835-10L935-10L935+10L835+10L835-10Z" opacity="1" fill="#000000"/>
<path d="M685-30L785-30L785-10L685-10L685-30Z" opacity="1" fill="#000000"/>
<path d="M785-30L885-30L885-10L785-10L785-30Z" opacity="1" fill="#000000"/>
<path d="M885-30L985-30L985-10L885-10L885-30Z" opacity="1" fill="#000000"/>
<path d="M935-10L1035-10L1035+10L935+10L935-10Z" opacity="1" fill="#000000"/>
<path d="M985-30L1085-30L1085-10L985-10L985-30Z" opacity="1" fill="#000000"/>
<path d="M-15.1672+10.0435L84.8328+10.0435L84.8328+30.0435L-15.1672+30.0435L-15.1672+10.0435Z" opacity="1" fill="#000000"/>
<path d="M84.9244+10L184.924+10L184.924+30L84.9244+30L84.9244+10Z" opacity="1" fill="#000000"/>
<path d="M184.924+10L284.924+10L284.924+30L184.924+30L184.924+10Z" opacity="1" fill="#000000"/>
<path d="M-65+30L35+30L35+50L-65+50L-65+30Z" opacity="1" fill="#000000"/>
<path d="M34.9244+30L134.924+30L134.924+50L34.9244+50L34.9244+30Z" opacity="1" fill="#000000"/>
<path d="M134.924+30L234.924+30L234.924+50L134.924+50L134.924+30Z" opacity="1" fill="#000000"/>
<path d="M234.924+30L334.924+30L334.924+50L234.924+50L234.924+30Z" opacity="1" fill="#000000"/>
<path d="M284.924+10L384.924+10L384.924+30L284.924+30L284.924+10Z" opacity="1" fill="#000000"/>
<path d="M334.924+30L434.924+30L434.924+50L334.924+50L334.924+30Z" opacity="1" fill="#000000"/>
<path d="M384.924+10L484.924+10L484.924+30L384.924+30L384.924+10Z" opacity="1" fill="#000000"/>
<path d="M435+30L535+30L535+50L435+50L435+30Z" opacity="1" fill="#000000"/>
<path d="M485+10L585+10L585+30L485+30L485+10Z" opacity="1" fill="#000000"/>
<path d="M535+30L635+30L635+50L535+50L535+30Z" opacity="1" fill="#000000"/>
<path d="M585+10L685+10L685+30L585+30L585+10Z" opacity="1" fill="#000000"/>
<path d="M635+30L735+30L735+50L635+50L635+30Z" opacity="1" fill="#000000"/>
<path d="M735+30L835+30L835+50L735+50L735+30Z" opacity="1" fill="#000000"/>
<path d="M835+30L935+30L935+50L835+50L835+30Z" opacity="1" fill="#000000"/>
<path d="M685+10L785+10L785+30L685+30L685+10Z" opacity="1" fill="#000000"/>
<path d="M785+10L885+10L885+30L785+30L785+10Z" opacity="1" fill="#000000"/>
<path d="M885+10L985+10L985+30L885+30L885+10Z" opacity="1" fill="#000000"/>
<path d="M935+30L1035+30L1035+50L935+50L935+30Z" opacity="1" fill="#000000"/>
<path d="M985+10L1085+10L1085+30L985+30L985+10Z" opacity="1" fill="#000000"/>
<path d="M-15.1672+50.0435L84.8328+50.0435L84.8328+70.0435L-15.1672+70.0435L-15.1672+50.0435Z" opacity="1" fill="#000000"/>
<path d="M84.9244+50L184.924+50L184.924+70L84.9244+70L84.9244+50Z" opacity="1" fill="#000000"/>
<path d="M184.924+50L284.924+50L284.924+70L184.924+70L184.924+50Z" opacity="1" fill="#000000"/>
<path d="M-65+70L35+70L35+90L-65+90L-65+70Z" opacity="1" fill="#000000"/>
<path d="M34.9244+70L134.924+70L134.924+90L34.9244+90L34.9244+70Z" opacity="1" fill="#000000"/>
<path d="M134.924+70L234.924+70L234.924+90L134.924+90L134.924+70Z" opacity="1" fill="#000000"/>
<path d="M234.924+70L334.924+70L334.924+90L234.924+90L234.924+70Z" opacity="1" fill="#000000"/>
<path d="M284.924+50L384.924+50L384.924+70L284.924+70L284.924+50Z" opacity="1" fill="#000000"/>
<path d="M334.924+70L434.924+70L434.924+90L334.924+90L334.924+70Z" opacity="1" fill="#000000"/>
<path d="M384.924+50L484.924+50L484.924+70L384.924+70L384.924+50Z" opacity="1" fill="#000000"/>
<path d="M435+70L535+70L535+90L435+90L435+70Z" opacity="1" fill="#000000"/>
<path d="M485+50L585+50L585+70L485+70L485+50Z" opacity="1" fill="#000000"/>
<path d="M535+70L635+70L635+90L535+90L535+70Z" opacity="1" fill="#000000"/>
<path d="M585+50L685+50L685+70L585+70L585+50Z" opacity="1" fill="#000000"/>
<path d="M635+70L735+70L735+90L635+90L635+70Z" opacity="1" fill="#000000"/>
<path d="M735+70L835+70L835+90L735+90L735+70Z" opacity="1" fill="#000000"/>
<path d="M835+70L935+70L935+90L835+90L835+70Z" opacity="1" fill="#000000"/>
<path d="M685+50L785+50L785+70L685+70L685+50Z" opacity="1" fill="#000000"/>
<path d="M785+50L885+50L885+70L785+70L785+50Z" opacity="1" fill="#000000"/>
<path d="M885+50L985+50L985+70L885+70L885+50Z" opacity="1" fill="#000000"/>
<path d="M935+70L1035+70L1035+90L935+90L935+70Z" opacity="1" fill="#000000"/>
<path d="M985+50L1085+50L1085+70L985+70L985+50Z" opacity="1" fill="#000000"/>
<path d="M-15.1672+90.0435L84.8328+90.0435L84.8328+110.044L-15.1672+110.044L-15.1672+90.0435Z" opacity="1" fill="#000000"/>
<path d="M84.9244+90L184.924+90L184.924+110L84.9244+110L84.9244+90Z" opacity="1" fill="#000000"/>
<path d="M184.924+90L284.924+90L284.924+110L184.924+110L184.924+90Z" opacity="1" fill="#000000"/>
<path d="M-65+110L35+110L35+130L-65+130L-65+110Z" opacity="1" fill="#000000"/>
<path d="M34.9244+110L134.924+110L134.924+130L34.9244+130L34.9244+110Z" opacity="1" fill="#000000"/>
<path d="M134.924+110L234.924+110L234.924+130L134.924+130L134.924+110Z" opacity="1" fill="#000000"/>
<path d="M234.924+110L334.924+110L334.924+130L234.924+130L234.924+110Z" opacity="1" fill="#000000"/>
<path d="M284.924+90L384.924+90L384.924+110L284.924+110L284.924+90Z" opacity="1" fill="#000000"/>
<path d="M334.924+110L434.924+110L434.924+130L334.924+130L334.924+110Z" opacity="1" fill="#000000"/>
<path d="M384.924+90L484.924+90L484.924+110L384.924+110L384.924+90Z" opacity="1" fill="#000000"/>
<path d="M435+110L535+110L535+130L435+130L435+110Z" opacity="1" fill="#000000"/>
<path d="M485+90L585+90L585+110L485+110L485+90Z" opacity="1" fill="#000000"/>
<path d="M535+110L635+110L635+130L535+130L535+110Z" opacity="1" fill="#000000"/>
<path d="M585+90L685+90L685+110L585+110L585+90Z" opacity="1" fill="#000000"/>
<path d="M635+110L735+110L735+130L635+130L635+110Z" opacity="1" fill="#000000"/>
<path d="M735+110L835+110L835+130L735+130L735+110Z" opacity="1" fill="#000000"/>
<path d="M835+110L935+110L935+130L835+130L835+110Z" opacity="1" fill="#000000"/>
<path d="M685+90L785+90L785+110L685+110L685+90Z" opacity="1" fill="#000000"/>
<path d="M785+90L885+90L885+110L785+110L785+90Z" opacity="1" fill="#000000"/>
<path d="M885+90L985+90L985+110L885+110L885+90Z" opacity="1" fill="#000000"/>
<path d="M935+110L1035+110L1035+130L935+130L935+110Z" opacity="1" fill="#000000"/>
<path d="M985+90L1085+90L1085+110L985+110L985+90Z" opacity="1" fill="#000000"/>
<path d="M-15.1672+130.044L84.8328+130.044L84.8328+150.044L-15.1672+150.044L-15.1672+130.044Z" opacity="1" fill="#000000"/>
<path d="M84.9244+130L184.924+130L184.924+150L84.9244+150L84.9244+130Z" opacity="1" fill="#000000"/>
<path d="M184.924+130L284.924+130L284.924+150L184.924+150L184.924+130Z" opacity="1" fill="#000000"/>
<path d="M-65+150L35+150L35+170L-65+170L-65+150Z" opacity="1" fill="#000000"/>
<path d="M34.9244+150L134.924+150L134.924+170L34.9244+170L34.9244+150Z" opacity="1" fill="#000000"/>
<path d="M134.924+150L234.924+150L234.924+170L134.924+170L134.924+150Z" opacity="1" fill="#000000"/>
<path d="M234.924+150L334.924+150L334.924+170L234.924+170L234.924+150Z" opacity="1" fill="#000000"/>
<path d="M284.924+130L384.924+130L384.924+150L284.924+150L284.924+130Z" opacity="1" fill="#000000"/>
<path d="M334.924+150L434.924+150L434.924+170L334.924+170L334.924+150Z" opacity="1" fill="#000000"/>
<path d="M384.924+130L484.924+130L484.924+150L384.924+150L384.924+130Z" opacity="1" fill="#000000"/>
<path d="M435+150L535+150L535+170L435+170L435+150Z" opacity="1" fill="#000000"/>
<path d="M485+130L585+130L585+150L485+150L485+130Z" opacity="1" fill="#000000"/>
<path d="M535+150L635+150L635+170L535+170L535+150Z" opacity="1" fill="#000000"/>
<path d="M585+130L685+130L685+150L585+150L585+130Z" opacity="1" fill="#000000"/>
<path d="M635+150L735+150L735+170L635+170L635+150Z" opacity="1" fill="#000000"/>
<path d="M735+150L835+150L835+170L735+170L735+150Z" opacity="1" fill="#000000"/>
<path d="M835+150L935+150L935+170L835+170L835+150Z" opacity="1" fill="#000000"/>
<path d="M685+130L785+130L785+150L685+150L685+130Z" opacity="1" fill="#000000"/>
<path d="M785+130L885+130L885+150L785+150L785+130Z" opacity="1" fill="#000000"/>
<path d="M885+130L985+130L985+150L885+150L885+130Z" opacity="1" fill="#000000"/>
<path d="M935+150L1035+150L1035+170L935+170L935+150Z" opacity="1" fill="#000000"/>
<path d="M985+130L1085+130L1085+150L985+150L985+130Z" opacity="1" fill="#000000"/>
<path d="M-15.1672+170.044L84.8328+170.044L84.8328+190.044L-15.1672+190.044L-15.1672+170.044Z" opacity="1" fill="#000000"/>
<path d="M84.9244+170L184.924+170L184.924+190L84.9244+190L84.9244+170Z" opacity="1" fill="#000000"/>
<path d="M184.924+170L284.924+170L284.924+190L184.924+190L184.924+170Z" opacity="1" fill="#000000"/>
<path d="M-65+190L35+190L35+210L-65+210L-65+190Z" opacity="1" fill="#000000"/>
<path d="M34.9244+190L134.924+190L134.924+210L34.9244+210L34.9244+190Z" opacity="1" fill="#000000"/>
<path d="M134.924+190L234.924+190L234.924+210L134.924+210L134.924+190Z" opacity="1" fill="#000000"/>
<path d="M234.924+190L334.924+190L334.924+210L234.924+210L234.924+190Z" opacity="1" fill="#000000"/>
<path d="M284.924+170L384.924+170L384.924+190L284.924+190L284.924+170Z" opacity="1" fill="#000000"/>
<path d="M334.924+190L434.924+190L434.924+210L334.924+210L334.924+190Z" opacity="1" fill="#000000"/>
<path d="M384.924+170L484.924+170L484.924+190L384.924+190L384.924+170Z" opacity="1" fill="#000000"/>
<path d="M435+190L535+190L535+210L435+210L435+190Z" opacity="1" fill="#000000"/>
<path d="M485+170L585+170L585+190L485+190L485+170Z" opacity="1" fill="#000000"/>
<path d="M535+190L635+190L635+210L535+210L535+190Z" opacity="1" fill="#000000"/>
<path d="M585+170L685+170L685+190L585+190L585+170Z" opacity="1" fill="#000000"/>
<path d="M635+190L735+190L735+210L635+210L635+190Z" opacity="1" fill="#000000"/>
<path d="M735+190L835+190L835+210L735+210L735+190Z" opacity="1" fill="#000000"/>
<path d="M835+190L935+190L935+210L835+210L835+190Z" opacity="1" fill="#000000"/>
<path d="M685+170L785+170L785+190L685+190L685+170Z" opacity="1" fill="#000000"/>
<path d="M785+170L885+170L885+190L785+190L785+170Z" opacity="1" fill="#000000"/>
<path d="M885+170L985+170L985+190L885+190L885+170Z" opacity="1" fill="#000000"/>
<path d="M935+190L1035+190L1035+210L935+210L935+190Z" opacity="1" fill="#000000"/>
<path d="M985+170L1085+170L1085+190L985+190L985+170Z" opacity="1" fill="#000000"/>
<path d="M-15.1672+210.044L84.8328+210.044L84.8328+230.044L-15.1672+230.044L-15.1672+210.044Z" opacity="1" fill="#000000"/>
<path d="M84.9244+210L184.924+210L184.924+230L84.9244+230L84.9244+210Z" opacity="1" fill="#000000"/>
<path d="M184.924+210L284.924+210L284.924+230L184.924+230L184.924+210Z" opacity="1" fill="#000000"/>
<path d="M-65+230L35+230L35+250L-65+250L-65+230Z" opacity="1" fill="#000000"/>
<path d="M34.9244+230L134.924+230L134.924+250L34.9244+250L34.9244+230Z" opacity="1" fill="#000000"/>
<path d="M134.924+230L234.924+230L234.924+250L134.924+250L134.924+230Z" opacity="1" fill="#000000"/>
<path d="M234.924+230L334.924+230L334.924+250L234.924+250L234.924+230Z" opacity="1" fill="#000000"/>
<path d="M284.924+210L384.924+210L384.924+230L284.924+230L284.924+210Z" opacity="1" fill="#000000"/>
<path d="M334.924+230L434.924+230L434.924+250L334.924+250L334.924+230Z" opacity="1" fill="#000000"/>
<path d="M384.924+210L484.924+210L484.924+230L384.924+230L384.924+210Z" opacity="1" fill="#000000"/>
<path d="M435+230L535+230L535+250L435+250L435+230Z" opacity="1" fill="#000000"/>
<path d="M485+210L585+210L585+230L485+230L485+210Z" opacity="1" fill="#000000"/>
<path d="M535+230L635+230L635+250L535+250L535+230Z" opacity="1" fill="#000000"/>
<path d="M585+210L685+210L685+230L585+230L585+210Z" opacity="1" fill="#000000"/>
<path d="M635+230L735+230L735+250L635+250L635+230Z" opacity="1" fill="#000000"/>
<path d="M735+230L835+230L835+250L735+250L735+230Z" opacity="1" fill="#000000"/>
<path d="M835+230L935+230L935+250L835+250L835+230Z" opacity="1" fill="#000000"/>
<path d="M685+210L785+210L785+230L685+230L685+210Z" opacity="1" fill="#000000"/>
<path d="M785+210L885+210L885+230L785+230L785+210Z" opacity="1" fill="#000000"/>
<path d="M885+210L985+210L985+230L885+230L885+210Z" opacity="1" fill="#000000"/>
<path d="M935+230L1035+230L1035+250L935+250L935+230Z" opacity="1" fill="#000000"/>
<path d="M985+210L1085+210L1085+230L985+230L985+210Z" opacity="1" fill="#000000"/>
<path d="M-15.1672+250.044L84.8328+250.044L84.8328+270.044L-15.1672+270.044L-15.1672+250.044Z" opacity="1" fill="#000000"/>
<path d="M84.9244+250L184.924+250L184.924+270L84.9244+270L84.9244+250Z" opacity="1" fill="#000000"/>
<path d="M184.924+250L284.924+250L284.924+270L184.924+270L184.924+250Z" opacity="1" fill="#000000"/>
<path d="M-65+270L35+270L35+290L-65+290L-65+270Z" opacity="1" fill="#000000"/>
<path d="M34.9244+270L134.924+270L134.924+290L34.9244+290L34.9244+270Z" opacity="1" fill="#000000"/>
<path d="M134.924+270L234.924+270L234.924+290L134.924+290L134.924+270Z" opacity="1" fill="#000000"/>
<path d="M234.924+270L334.924+270L334.924+290L234.924+290L234.924+270Z" opacity="1" fill="#000000"/>
<path d="M284.924+250L384.924+250L384.924+270L284.924+270L284.924+250Z" opacity="1" fill="#000000"/>
<path d="M334.924+270L434.924+270L434.924+290L334.924+290L334.924+270Z" opacity="1" fill="#000000"/>
<path d="M384.924+250L484.924+250L484.924+270L384.924+270L384.924+250Z" opacity="1" fill="#000000"/>
<path d="M435+270L535+270L535+290L435+290L435+270Z" opacity="1" fill="#000000"/>
<path d="M485+250L585+250L585+270L485+270L485+250Z" opacity="1" fill="#000000"/>
<path d="M535+270L635+270L635+290L535+290L535+270Z" opacity="1" fill="#000000"/>
<path d="M585+250L685+250L685+270L585+270L585+250Z" opacity="1" fill="#000000"/>
<path d="M635+270L735+270L735+290L635+290L635+270Z" opacity="1" fill="#000000"/>
<path d="M735+270L835+270L835+290L735+290L735+270Z" opacity="1" fill="#000000"/>
<path d="M835+270L935+270L935+290L835+290L835+270Z" opacity="1" fill="#000000"/>
<path d="M685+250L785+250L785+270L685+270L685+250Z" opacity="1" fill="#000000"/>
<path d="M785+250L885+250L885+270L785+270L785+250Z" opacity="1" fill="#000000"/>
<path d="M885+250L985+250L985+270L885+270L885+250Z" opacity="1" fill="#000000"/>
<path d="M935+270L1035+270L1035+290L935+290L935+270Z" opacity="1" fill="#000000"/>
<path d="M985+250L1085+250L1085+270L985+270L985+250Z" opacity="1" fill="#000000"/>
<path d="M-15.1672+290.044L84.8328+290.044L84.8328+310.044L-15.1672+310.044L-15.1672+290.044Z" opacity="1" fill="#000000"/>
<path d="M84.9244+290L184.924+290L184.924+310L84.9244+310L84.9244+290Z" opacity="1" fill="#000000"/>
<path d="M184.924+290L284.924+290L284.924+310L184.924+310L184.924+290Z" opacity="1" fill="#000000"/>
<path d="M-65+310L35+310L35+330L-65+330L-65+310Z" opacity="1" fill="#000000"/>
<path d="M34.9244+310L134.924+310L134.924+330L34.9244+330L34.9244+310Z" opacity="1" fill="#000000"/>
<path d="M134.924+310L234.924+310L234.924+330L134.924+330L134.924+310Z" opacity="1" fill="#000000"/>
<path d="M234.924+310L334.924+310L334.924+330L234.924+330L234.924+310Z" opacity="1" fill="#000000"/>
<path d="M284.924+290L384.924+290L384.924+310L284.924+310L284.924+290Z" opacity="1" fill="#000000"/>
<path d="M334.924+310L434.924+310L434.924+330L334.924+330L334.924+310Z" opacity="1" fill="#000000"/>
<path d="M384.924+290L484.924+290L484.924+310L384.924+310L384.924+290Z" opacity="1" fill="#000000"/>
<path d="M435+310L535+310L535+330L435+330L435+310Z" opacity="1" fill="#000000"/>
<path d="M485+290L585+290L585+310L485+310L485+290Z" opacity="1" fill="#000000"/>
<path d="M535+310L635+310L635+330L535+330L535+310Z" opacity="1" fill="#000000"/>
<path d="M585+290L685+290L685+310L585+310L585+290Z" opacity="1" fill="#000000"/>
<path d="M635+310L735+310L735+330L635+330L635+310Z" opacity="1" fill="#000000"/>
<path d="M735+310L835+310L835+330L735+330L735+310Z" opacity="1" fill="#000000"/>
<path d="M835+310L935+310L935+330L835+330L835+310Z" opacity="1" fill="#000000"/>
<path d="M685+290L785+290L785+310L685+310L685+290Z" opacity="1" fill="#000000"/>
<path d="M785+290L885+290L885+310L785+310L785+290Z" opacity="1" fill="#000000"/>
<path d="M885+290L985+290L985+310L885+310L885+290Z" opacity="1" fill="#000000"/>
<path d="M935+310L1035+310L1035+330L935+330L935+310Z" opacity="1" fill="#000000"/>
<path d="M985+290L1085+290L1085+310L985+310L985+290Z" opacity="1" fill="#000000"/>
<path d="M-15.1672+330.044L84.8328+330.044L84.8328+350.044L-15.1672+350.044L-15.1672+330.044Z" opacity="1" fill="#000000"/>
<path d="M84.9244+330L184.924+330L184.924+350L84.9244+350L84.9244+330Z" opacity="1" fill="#000000"/>
<path d="M184.924+330L284.924+330L284.924+350L184.924+350L184.924+330Z" opacity="1" fill="#000000"/>
<path d="M-65+350L35+350L35+370L-65+370L-65+350Z" opacity="1" fill="#000000"/>
<path d="M34.9244+350L134.924+350L134.924+370L34.9244+370L34.9244+350Z" opacity="1" fill="#000000"/>
<path d="M134.924+350L234.924+350L234.924+370L134.924+370L134.924+350Z" opacity="1" fill="#000000"/>
<path d="M234.924+350L334.924+350L334.924+370L234.924+370L234.924+350Z" opacity="1" fill="#000000"/>
<path d="M284.924+330L384.924+330L384.924+350L284.924+350L284.924+330Z" opacity="1" fill="#000000"/>
<path d="M334.924+350L434.924+350L434.924+370L334.924+370L334.924+350Z" opacity="1" fill="#000000"/>
<path d="M384.924+330L484.924+330L484.924+350L384.924+350L384.924+330Z" opacity="1" fill="#000000"/>
<path d="M435+350L535+350L535+370L435+370L435+350Z" opacity="1" fill="#000000"/>
<path d="M485+330L585+330L585+350L485+350L485+330Z" opacity="1" fill="#000000"/>
<path d="M535+350L635+350L635+370L535+370L535+350Z" opacity="1" fill="#000000"/>
<path d="M585+330L685+330L685+350L585+350L585+330Z" opacity="1" fill="#000000"/>
<path d="M635+350L735+350L735+370L635+370L635+350Z" opacity="1" fill="#000000"/>
<path d="M735+350L835+350L835+370L735+370L735+350Z" opacity="1" fill="#000000"/>
<path d="M835+350L935+350L935+370L835+370L835+350Z" opacity="1" fill="#000000"/>
<path d="M685+330L785+330L785+350L685+350L685+330Z" opacity="1" fill="#000000"/>
<path d="M785+330L885+330L885+350L785+350L785+330Z" opacity="1" fill="#000000"/>
<path d="M885+330L985+330L985+350L885+350L885+330Z" opacity="1" fill="#000000"/>
<path d="M935+350L1035+350L1035+370L935+370L935+350Z" opacity="1" fill="#000000"/>
<path d="M985+330L1085+330L1085+350L985+350L985+330Z" opacity="1" fill="#000000"/>
<path d="M-15.1672+370.044L84.8328+370.044L84.8328+390.044L-15.1672+390.044L-15.1672+370.044Z" opacity="1" fill="#000000"/>
<path d="M84.9244+370L184.924+370L184.924+390L84.9244+390L84.9244+370Z" opacity="1" fill="#000000"/>
<path d="M184.924+370L284.924+370L284.924+390L184.924+390L184.924+370Z" opacity="1" fill="#000000"/>
<path d="M-65+390L35+390L35+410L-65+410L-65+390Z" opacity="1" fill="#000000"/>
<path d="M34.9244+390L134.924+390L134.924+410L34.9244+410L34.9244+390Z" opacity="1" fill="#000000"/>
<path d="M134.924+390L234.924+390L234.924+410L134.924+410L134.924+390Z" opacity="1" fill="#000000"/>
<path d="M234.924+390L334.924+390L334.924+410L234.924+410L234.924+390Z" opacity="1" fill="#000000"/>
<path d="M284.924+370L384.924+370L384.924+390L284.924+390L284.924+370Z" opacity="1" fill="#000000"/>
<path d="M334.924+390L434.924+390L434.924+410L334.924+410L334.924+390Z" opacity="1" fill="#000000"/>
<path d="M384.924+370L484.924+370L484.924+390L384.924+390L384.924+370Z" opacity="1" fill="#000000"/>
<path d="M435+390L535+390L535+410L435+410L435+390Z" opacity="1" fill="#000000"/>
<path d="M485+370L585+370L585+390L485+390L485+370Z" opacity="1" fill="#000000"/>
<path d="M535+390L635+390L635+410L535+410L535+390Z" opacity="1" fill="#000000"/>
<path d="M585+370L685+370L685+390L585+390L585+370Z" opacity="1" fill="#000000"/>
<path d="M635+390L735+390L735+410L635+410L635+390Z" opacity="1" fill="#000000"/>
<path d="M735+390L835+390L835+410L735+410L735+390Z" opacity="1" fill="#000000"/>
<path d="M835+390L935+390L935+410L835+410L835+390Z" opacity="1" fill="#000000"/>
<path d="M685+370L785+370L785+390L685+390L685+370Z" opacity="1" fill="#000000"/>
<path d="M785+370L885+370L885+390L785+390L785+370Z" opacity="1" fill="#000000"/>
<path d="M885+370L985+370L985+390L885+390L885+370Z" opacity="1" fill="#000000"/>
<path d="M935+390L1035+390L1035+410L935+410L935+390Z" opacity="1" fill="#000000"/>
<path d="M985+370L1085+370L1085+390L985+390L985+370Z" opacity="1" fill="#000000"/>
<path d="M-15.1672+410.044L84.8328+410.044L84.8328+430.044L-15.1672+430.044L-15.1672+410.044Z" opacity="1" fill="#000000"/>
<path d="M84.9244+410L184.924+410L184.924+430L84.9244+430L84.9244+410Z" opacity="1" fill="#000000"/>
<path d="M184.924+410L284.924+410L284.924+430L184.924+430L184.924+410Z" opacity="1" fill="#000000"/>
<path d="M-65+430L35+430L35+450L-65+450L-65+430Z" opacity="1" fill="#000000"/>
<path d="M34.9244+430L134.924+430L134.924+450L34.9244+450L34.9244+430Z" opacity="1" fill="#000000"/>
<path d="M134.924+430L234.924+430L234.924+450L134.924+450L134.924+430Z" opacity="1" fill="#000000"/>
<path d="M234.924+430L334.924+430L334.924+450L234.924+450L234.924+430Z" opacity="1" fill="#000000"/>
<path d="M284.924+410L384.924+410L384.924+430L284.924+430L284.924+410Z" opacity="1" fill="#000000"/>
<path d="M334.924+430L434.924+430L434.924+450L334.924+450L334.924+430Z" opacity="1" fill="#000000"/>
<path d="M384.924+410L484.924+410L484.924+430L384.924+430L384.924+410Z" opacity="1" fill="#000000"/>
<path d="M435+430L535+430L535+450L435+450L435+430Z" opacity="1" fill="#000000"/>
<path d="M485+410L585+410L585+430L485+430L485+410Z" opacity="1" fill="#000000"/>
<path d="M535+430L635+430L635+450L535+450L535+430Z" opacity="1" fill="#000000"/>
<path d="M585+410L685+410L685+430L585+430L585+410Z" opacity="1" fill="#000000"/>
<path d="M635+430L735+430L735+450L635+450L635+430Z" opacity="1" fill="#000000"/>
<path d="M735+430L835+430L835+450L735+450L735+430Z" opacity="1" fill="#000000"/>
<path d="M835+430L935+430L935+450L835+450L835+430Z" opacity="1" fill="#000000"/>
<path d="M685+410L785+410L785+430L685+430L685+410Z" opacity="1" fill="#000000"/>
<path d="M785+410L885+410L885+430L785+430L785+410Z" opacity="1" fill="#000000"/>
<path d="M885+410L985+410L985+430L885+430L885+410Z" opacity="1" fill="#000000"/>
<path d="M935+430L1035+430L1035+450L935+450L935+430Z" opacity="1" fill="#000000"/>
<path d="M985+410L1085+410L1085+430L985+430L985+410Z" opacity="1" fill="#000000"/>
<path d="M-15.1672+450.044L84.8328+450.044L84.8328+470.044L-15.1672+470.044L-15.1672+450.044Z" opacity="1" fill="#000000"/>
<path d="M84.9244+450L184.924+450L184.924+470L84.9244+470L84.9244+450Z" opacity="1" fill="#000000"/>
<path d="M184.924+450L284.924+450L284.924+470L184.924+470L184.924+450Z" opacity="1" fill="#000000"/>
<path d="M-65+470L35+470L35+490L-65+490L-65+470Z" opacity="1" fill="#000000"/>
<path d="M34.9244+470L134.924+470L134.924+490L34.9244+490L34.9244+470Z" opacity="1" fill="#000000"/>
<path d="M134.924+470L234.924+470L234.924+490L134.924+490L134.924+470Z" opacity="1" fill="#000000"/>
<path d="M234.924+470L334.924+470L334.924+490L234.924+490L234.924+470Z" opacity="1" fill="#000000"/>
<path d="M284.924+450L384.924+450L384.924+470L284.924+470L284.924+450Z" opacity="1" fill="#000000"/>
<path d="M334.924+470L434.924+470L434.924+490L334.924+490L334.924+470Z" opacity="1" fill="#000000"/>
<path d="M384.924+450L484.924+450L484.924+470L384.924+470L384.924+450Z" opacity="1" fill="#000000"/>
<path d="M435+470L535+470L535+490L435+490L435+470Z" opacity="1" fill="#000000"/>
<path d="M485+450L585+450L585+470L485+470L485+450Z" opacity="1" fill="#000000"/>
<path d="M535+470L635+470L635+490L535+490L535+470Z" opacity="1" fill="#000000"/>
<path d="M585+450L685+450L685+470L585+470L585+450Z" opacity="1" fill="#000000"/>
<path d="M635+470L735+470L735+490L635+490L635+470Z" opacity="1" fill="#000000"/>
<path d="M735+470L835+470L835+490L735+490L735+470Z" opacity="1" fill="#000000"/>
<path d="M835+470L935+470L935+490L835+490L835+470Z" opacity="1" fill="#000000"/>
<path d="M685+450L785+450L785+470L685+470L685+450Z" opacity="1" fill="#000000"/>
<path d="M785+450L885+450L885+470L785+470L785+450Z" opacity="1" fill="#000000"/>
<path d="M885+450L985+450L985+470L885+470L885+450Z" opacity="1" fill="#000000"/>
<path d="M935+470L1035+470L1035+490L935+490L935+470Z" opacity="1" fill="#000000"/>
<path d="M985+450L1085+450L1085+470L985+470L985+450Z" opacity="1" fill="#000000"/>
<path d="M-15.1672+490.044L84.8328+490.044L84.8328+510.044L-15.1672+510.044L-15.1672+490.044Z" opacity="1" fill="#000000"/>
<path d="M84.9244+490L184.924+490L184.924+510L84.9244+510L84.9244+490Z" opacity="1" fill="#000000"/>
<path d="M184.924+490L284.924+490L284.924+510L184.924+510L184.924+490Z" opacity="1" fill="#000000"/>
<path d="M-65+510L35+510L35+530L-65+530L-65+510Z" opacity="1" fill="#000000"/>
<path d="M34.9244+510L134.924+510L134.924+530L34.9244+530L34.9244+510Z" opacity="1" fill="#000000"/>
<path d="M134.924+510L234.924+510L234.924+530L134.924+530L134.924+510Z" opacity="1" fill="#000000"/>
<path d="M234.924+510L334.924+510L334.924+530L234.924+530L234.924+510Z" opacity="1" fill="#000000"/>
<path d="M284.924+490L384.924+490L384.924+510L284.924+510L284.924+490Z" opacity="1" fill="#000000"/>
<path d="M334.924+510L434.924+510L434.924+530L334.924+530L334.924+510Z" opacity="1" fill="#000000"/>
<path d="M384.924+490L484.924+490L484.924+510L384.924+510L384.924+490Z" opacity="1" fill="#000000"/>
<path d="M435+510L535+510L535+530L435+530L435+510Z" opacity="1" fill="#000000"/>
<path d="M485+490L585+490L585+510L485+510L485+490Z" opacity="1" fill="#000000"/>
<path d="M535+510L635+510L635+530L535+530L535+510Z" opacity="1" fill="#000000"/>
<path d="M585+490L685+490L685+510L585+510L585+490Z" opacity="1" fill="#000000"/>
<path d="M635+510L735+510L735+530L635+530L635+510Z" opacity="1" fill="#000000"/>
<path d="M735+510L835+510L835+530L735+530L735+510Z" opacity="1" fill="#000000"/>
<path d="M835+510L935+510L935+530L835+530L835+510Z" opacity="1" fill="#000000"/>
<path d="M685+490L785+490L785+510L685+510L685+490Z" opacity="1" fill="#000000"/>
<path d="M785+490L885+490L885+510L785+510L785+490Z" opacity="1" fill="#000000"/>
<path d="M885+490L985+490L985+510L885+510L885+490Z" opacity="1" fill="#000000"/>
<path d="M935+510L1035+510L1035+530L935+530L935+510Z" opacity="1" fill="#000000"/>
<path d="M985+490L1085+490L1085+510L985+510L985+490Z" opacity="1" fill="#000000"/>
<path d="M-15.1672+530.044L84.8328+530.044L84.8328+550.044L-15.1672+550.044L-15.1672+530.044Z" opacity="1" fill="#000000"/>
<path d="M84.9244+530L184.924+530L184.924+550L84.9244+550L84.9244+530Z" opacity="1" fill="#000000"/>
<path d="M184.924+530L284.924+530L284.924+550L184.924+550L184.924+530Z" opacity="1" fill="#000000"/>
<path d="M-65+550L35+550L35+570L-65+570L-65+550Z" opacity="1" fill="#000000"/>
<path d="M34.9244+550L134.924+550L134.924+570L34.9244+570L34.9244+550Z" opacity="1" fill="#000000"/>
<path d="M134.924+550L234.924+550L234.924+570L134.924+570L134.924+550Z" opacity="1" fill="#000000"/>
<path d="M234.924+550L334.924+550L334.924+570L234.924+570L234.924+550Z" opacity="1" fill="#000000"/>
<path d="M284.924+530L384.924+530L384.924+550L284.924+550L284.924+530Z" opacity="1" fill="#000000"/>
<path d="M334.924+550L434.924+550L434.924+570L334.924+570L334.924+550Z" opacity="1" fill="#000000"/>
<path d="M384.924+530L484.924+530L484.924+550L384.924+550L384.924+530Z" opacity="1" fill="#000000"/>
<path d="M435+550L535+550L535+570L435+570L435+550Z" opacity="1" fill="#000000"/>
<path d="M485+530L585+530L585+550L485+550L485+530Z" opacity="1" fill="#000000"/>
<path d="M535+550L635+550L635+570L535+570L535+550Z" opacity="1" fill="#000000"/>
<path d="M585+530L685+530L685+550L585+550L585+530Z" opacity="1" fill="#000000"/>
<path d="M635+550L735+550L735+570L635+570L635+550Z" opacity="1" fill="#000000"/>
<path d="M735+550L835+550L835+570L735+570L735+550Z" opacity="1" fill="#000000"/>
<path d="M835+550L935+550L935+570L835+570L835+550Z" opacity="1" fill="#000000"/>
<path d="M685+530L785+530L785+550L685+550L685+530Z" opacity="1" fill="#000000"/>
<path d="M785+530L885+530L885+550L785+550L785+530Z" opacity="1" fill="#000000"/>
<path d="M885+530L985+530L985+550L885+550L885+530Z" opacity="1" fill="#000000"/>
<path d="M935+550L1035+550L1035+570L935+570L935+550Z" opacity="1" fill="#000000"/>
<path d="M985+530L1085+530L1085+550L985+550L985+530Z" opacity="1" fill="#000000"/>
<path d="M-15.1672+570.044L84.8328+570.044L84.8328+590.044L-15.1672+590.044L-15.1672+570.044Z" opacity="1" fill="#000000"/>
<path d="M84.9244+570L184.924+570L184.924+590L84.9244+590L84.9244+570Z" opacity="1" fill="#000000"/>
<path d="M184.924+570L284.924+570L284.924+590L184.924+590L184.924+570Z" opacity="1" fill="#000000"/>
<path d="M-65+590L35+590L35+610L-65+610L-65+590Z" opacity="1" fill="#000000"/>
<path d="M34.9244+590L134.924+590L134.924+610L34.9244+610L34.9244+590Z" opacity="1" fill="#000000"/>
<path d="M134.924+590L234.924+590L234.924+610L134.924+610L134.924+590Z" opacity="1" fill="#000000"/>
<path d="M234.924+590L334.924+590L334.924+610L234.924+610L234.924+590Z" opacity="1" fill="#000000"/>
<path d="M284.924+570L384.924+570L384.924+590L284.924+590L284.924+570Z" opacity="1" fill="#000000"/>
<path d="M334.924+590L434.924+590L434.924+610L334.924+610L334.924+590Z" opacity="1" fill="#000000"/>
<path d="M384.924+570L484.924+570L484.924+590L384.924+590L384.924+570Z" opacity="1" fill="#000000"/>
<path d="M435+590L535+590L535+610L435+610L435+590Z" opacity="1" fill="#000000"/>
<path d="M485+570L585+570L585+590L485+590L485+570Z" opacity="1" fill="#000000"/>
<path d="M535+590L635+590L635+610L535+610L535+590Z" opacity="1" fill="#000000"/>
<path d="M585+570L685+570L685+590L585+590L585+570Z" opacity="1" fill="#000000"/>
<path d="M635+590L735+590L735+610L635+610L635+590Z" opacity="1" fill="#000000"/>
<path d="M735+590L835+590L835+610L735+610L735+590Z" opacity="1" fill="#000000"/>
<path d="M835+590L935+590L935+610L835+610L835+590Z" opacity="1" fill="#000000"/>
<path d="M685+570L785+570L785+590L685+590L685+570Z" opacity="1" fill="#000000"/>
<path d="M785+570L885+570L885+590L785+590L785+570Z" opacity="1" fill="#000000"/>
<path d="M885+570L985+570L985+590L885+590L885+570Z" opacity="1" fill="#000000"/>
<path d="M935+590L1035+590L1035+610L935+610L935+590Z" opacity="1" fill="#000000"/>
<path d="M985+570L1085+570L1085+590L985+590L985+570Z" opacity="1" fill="#000000"/>
<path d="M-15.1672+610.044L84.8328+610.044L84.8328+630.044L-15.1672+630.044L-15.1672+610.044Z" opacity="1" fill="#000000"/>
<path d="M84.9244+610L184.924+610L184.924+630L84.9244+630L84.9244+610Z" opacity="1" fill="#000000"/>
<path d="M184.924+610L284.924+610L284.924+630L184.924+630L184.924+610Z" opacity="1" fill="#000000"/>
<path d="M-65+630L35+630L35+650L-65+650L-65+630Z" opacity="1" fill="#000000"/>
<path d="M34.9244+630L134.924+630L134.924+650L34.9244+650L34.9244+630Z" opacity="1" fill="#000000"/>
<path d="M134.924+630L234.924+630L234.924+650L134.924+650L134.924+630Z" opacity="1" fill="#000000"/>
<path d="M234.924+630L334.924+630L334.924+650L234.924+650L234.924+630Z" opacity="1" fill="#000000"/>
<path d="M284.924+610L384.924+610L384.924+630L284.924+630L284.924+610Z" opacity="1" fill="#000000"/>
<path d="M334.924+630L434.924+630L434.924+650L334.924+650L334.924+630Z" opacity="1" fill="#000000"/>
<path d="M384.924+610L484.924+610L484.924+630L384.924+630L384.924+610Z" opacity="1" fill="#000000"/>
<path d="M435+630L535+630L535+650L435+650L435+630Z" opacity="1" fill="#000000"/>
<path d="M485+610L585+610L585+630L485+630L485+610Z" opacity="1" fill="#000000"/>
<path d="M535+630L635+630L635+650L535+650L535+630Z" opacity="1" fill="#000000"/>
<path d="M585+610L685+610L685+630L585+630L585+610Z" opacity="1" fill="#000000"/>
<path d="M635+630L735+630L735+650L635+650L635+630Z" opacity="1" fill="#000000"/>
<path d="M735+630L835+630L835+650L735+650L735+630Z" opacity="1" fill="#000000"/>
<path d="M835+630L935+630L935+650L835+650L835+630Z" opacity="1" fill="#000000"/>
<path d="M685+610L785+610L785+630L685+630L685+610Z" opacity="1" fill="#000000"/>
<path d="M785+610L885+610L885+630L785+630L785+610Z" opacity="1" fill="#000000"/>
<path d="M885+610L985+610L985+630L885+630L885+610Z" opacity="1" fill="#000000"/>
<path d="M935+630L1035+630L1035+650L935+650L935+630Z" opacity="1" fill="#000000"/>
<path d="M985+610L1085+610L1085+630L985+630L985+610Z" opacity="1" fill="#000000"/>
<path d="M-15.1672+650.044L84.8328+650.044L84.8328+670.044L-15.1672+670.044L-15.1672+650.044Z" opacity="1" fill="#000000"/>
<path d="M84.9244+650L184.924+650L184.924+670L84.9244+670L84.9244+650Z" opacity="1" fill="#000000"/>
<path d="M184.924+650L284.924+650L284.924+670L184.924+670L184.924+650Z" opacity="1" fill="#000000"/>
<path d="M-65+670L35+670L35+690L-65+690L-65+670Z" opacity="1" fill="#000000"/>
<path d="M34.9244+670L134.924+670L134.924+690L34.9244+690L34.9244+670Z" opacity="1" fill="#000000"/>
<path d="M134.924+670L234.924+670L234.924+690L134.924+690L134.924+670Z" opacity="1" fill="#000000"/>
<path d="M234.924+670L334.924+670L334.924+690L234.924+690L234.924+670Z" opacity="1" fill="#000000"/>
<path d="M284.924+650L384.924+650L384.924+670L284.924+670L284.924+650Z" opacity="1" fill="#000000"/>
<path d="M334.924+670L434.924+670L434.924+690L334.924+690L334.924+670Z" opacity="1" fill="#000000"/>
<path d="M384.924+650L484.924+650L484.924+670L384.924+670L384.924+650Z" opacity="1" fill="#000000"/>
<path d="M435+670L535+670L535+690L435+690L435+670Z" opacity="1" fill="#000000"/>
<path d="M485+650L585+650L585+670L485+670L485+650Z" opacity="1" fill="#000000"/>
<path d="M535+670L635+670L635+690L535+690L535+670Z" opacity="1" fill="#000000"/>
<path d="M585+650L685+650L685+670L585+670L585+650Z" opacity="1" fill="#000000"/>
<path d="M635+670L735+670L735+690L635+690L635+670Z" opacity="1" fill="#000000"/>
<path d="M735+670L835+670L835+690L735+690L735+670Z" opacity="1" fill="#000000"/>
<path d="M835+670L935+670L935+690L835+690L835+670Z" opacity="1" fill="#000000"/>
<path d="M685+650L785+650L785+670L685+670L685+650Z" opacity="1" fill="#000000"/>
<path d="M785+650L885+650L885+670L785+670L785+650Z" opacity="1" fill="#000000"/>
<path d="M885+650L985+650L985+670L885+670L885+650Z" opacity="1" fill="#000000"/>
<path d="M935+670L1035+670L1035+690L935+690L935+670Z" opacity="1" fill="#000000"/>
<path d="M985+650L1085+650L1085+670L985+670L985+650Z" opacity="1" fill="#000000"/>
<path d="M-15.1672+690.044L84.8328+690.044L84.8328+710.044L-15.1672+710.044L-15.1672+690.044Z" opacity="1" fill="#000000"/>
<path d="M84.9244+690L184.924+690L184.924+710L84.9244+710L84.9244+690Z" opacity="1" fill="#000000"/>
<path d="M184.924+690L284.924+690L284.924+710L184.924+710L184.924+690Z" opacity="1" fill="#000000"/>
<path d="M-65+710L35+710L35+730L-65+730L-65+710Z" opacity="1" fill="#000000"/>
<path d="M34.9244+710L134.924+710L134.924+730L34.9244+730L34.9244+710Z" opacity="1" fill="#000000"/>
<path d="M134.924+710L234.924+710L234.924+730L134.924+730L134.924+710Z" opacity="1" fill="#000000"/>
<path d="M234.924+710L334.924+710L334.924+730L234.924+730L234.924+710Z" opacity="1" fill="#000000"/>
<path d="M284.924+690L384.924+690L384.924+710L284.924+710L284.924+690Z" opacity="1" fill="#000000"/>
<path d="M334.924+710L434.924+710L434.924+730L334.924+730L334.924+710Z" opacity="1" fill="#000000"/>
<path d="M384.924+690L484.924+690L484.924+710L384.924+710L384.924+690Z" opacity="1" fill="#000000"/>
<path d="M435+710L535+710L535+730L435+730L435+710Z" opacity="1" fill="#000000"/>
<path d="M485+690L585+690L585+710L485+710L485+690Z" opacity="1" fill="#000000"/>
<path d="M535+710L635+710L635+730L535+730L535+710Z" opacity="1" fill="#000000"/>
<path d="M585+690L685+690L685+710L585+710L585+690Z" opacity="1" fill="#000000"/>
<path d="M635+710L735+710L735+730L635+730L635+710Z" opacity="1" fill="#000000"/>
<path d="M735+710L835+710L835+730L735+730L735+710Z" opacity="1" fill="#000000"/>
<path d="M835+710L935+710L935+730L835+730L835+710Z" opacity="1" fill="#000000"/>
<path d="M685+690L785+690L785+710L685+710L685+690Z" opacity="1" fill="#000000"/>
<path d="M785+690L885+690L885+710L785+710L785+690Z" opacity="1" fill="#000000"/>
<path d="M885+690L985+690L985+710L885+710L885+690Z" opacity="1" fill="#000000"/>
<path d="M935+710L1035+710L1035+730L935+730L935+710Z" opacity="1" fill="#000000"/>
<path d="M985+690L1085+690L1085+710L985+710L985+690Z" opacity="1" fill="#000000"/>
<path d="M-15+730.044L85+730.044L85+750.044L-15+750.044L-15+730.044Z" opacity="1" fill="#000000"/>
<path d="M85.0916+730L185.092+730L185.092+750L85.0916+750L85.0916+730Z" opacity="1" fill="#000000"/>
<path d="M185.092+730L285.092+730L285.092+750L185.092+750L185.092+730Z" opacity="1" fill="#000000"/>
<path d="M285.092+730L385.092+730L385.092+750L285.092+750L285.092+730Z" opacity="1" fill="#000000"/>
<path d="M385.092+730L485.092+730L485.092+750L385.092+750L385.092+730Z" opacity="1" fill="#000000"/>
<path d="M485.167+730L585.167+730L585.167+750L485.167+750L485.167+730Z" opacity="1" fill="#000000"/>
<path d="M585.167+730L685.167+730L685.167+750L585.167+750L585.167+730Z" opacity="1" fill="#000000"/>
<path d="M685.167+730L785.167+730L785.167+750L685.167+750L685.167+730Z" opacity="1" fill="#000000"/>
<path d="M785.167+730L885.167+730L885.167+750L785.167+750L785.167+730Z" opacity="1" fill="#000000"/>
<path d="M885.167+730L985.167+730L985.167+750L885.167+750L885.167+730Z" opacity="1" fill="#000000"/>
<path d="M985.167+730L1085.17+730L1085.17+750L985.167+750L985.167+730Z" opacity="1" fill="#000000"/>
<path d="M-65+750L35+750L35+770L-65+770L-65+750Z" opacity="1" fill="#000000"/>
<path d="M34.9244+750L134.924+750L134.924+770L34.9244+770L34.9244+750Z" opacity="1" fill="#000000"/>
<path d="M134.924+750L234.924+750L234.924+770L134.924+770L134.924+750Z" opacity="1" fill="#000000"/>
<path d="M234.924+750L334.924+750L334.924+770L234.924+770L234.924+750Z" opacity="1" fill="#000000"/>
<path d="M334.924+750L434.924+750L434.924+770L334.924+770L334.924+750Z" opacity="1" fill="#000000"/>
<path d="M435+750L535+750L535+770L435+770L435+750Z" opacity="1" fill="#000000"/>
<path d="M535+750L635+750L635+770L535+770L535+750Z" opacity="1" fill="#000000"/>
<path d="M635+750L735+750L735+770L635+770L635+750Z" opacity="1" fill="#000000"/>
<path d="M735+750L835+750L835+770L735+770L735+750Z" opacity="1" fill="#000000"/>
<path d="M835+750L935+750L935+770L835+770L835+750Z" opacity="1" fill="#000000"/>
<path d="M935+750L1035+750L1035+770L935+770L935+750Z" opacity="1" fill="#000000"/>
<path d="M-15+770.044L85+770.044L85+790.044L-15+790.044L-15+770.044Z" opacity="1" fill="#000000"/>
<path d="M85.0916+770L185.092+770L185.092+790L85.0916+790L85.0916+770Z" opacity="1" fill="#000000"/>
<path d="M185.092+770L285.092+770L285.092+790L185.092+790L185.092+770Z" opacity="1" fill="#000000"/>
<path d="M285.092+770L385.092+770L385.092+790L285.092+790L285.092+770Z" opacity="1" fill="#000000"/>
<path d="M385.092+770L485.092+770L485.092+790L385.092+790L385.092+770Z" opacity="1" fill="#000000"/>
<path d="M485.167+770L585.167+770L585.167+790L485.167+790L485.167+770Z" opacity="1" fill="#000000"/>
<path d="M585.167+770L685.167+770L685.167+790L585.167+790L585.167+770Z" opacity="1" fill="#000000"/>
<path d="M685.167+770L785.167+770L785.167+790L685.167+790L685.167+770Z" opacity="1" fill="#000000"/>
<path d="M785.167+770L885.167+770L885.167+790L785.167+790L785.167+770Z" opacity="1" fill="#000000"/>
<path d="M885.167+770L985.167+770L985.167+790L885.167+790L885.167+770Z" opacity="1" fill="#000000"/>
<path d="M985.167+770L1085.17+770L1085.17+790L985.167+790L985.167+770Z" opacity="1" fill="#000000"/>
</g>
</g>
<g id="Logo" vectornator:layerName="Logo">
<g opacity="1">
<path vectornator:shadowColor="#dcc75a" vectornator:shadowOpacity="1" vectornator:shadowRadius="50" d="M348.95+384.591L335.65+384.591C331.85+384.591+329.95+386.858+329.95+391.391C329.95+392.458+330.517+392.991+331.65+392.991C331.983+392.991+332.483+392.941+333.15+392.841C333.817+392.741+334.317+392.691+334.65+392.691C337.117+392.691+338.35+394.658+338.35+398.591C338.35+400.724+337.783+402.458+336.65+403.791C335.517+405.124+334.017+405.791+332.15+405.791C331.217+405.791+329.15+405.558+325.95+405.091C324.55+404.891+322.583+404.791+320.05+404.791C317.317+404.791+315.183+404.891+313.65+405.091C310.117+405.558+308.017+405.791+307.35+405.791C305.283+405.791+303.6+405.158+302.3+403.891C301+402.624+300.35+400.958+300.35+398.891C300.35+394.224+302.117+391.891+305.65+391.891C306.05+391.891+306.683+391.941+307.55+392.041C308.417+392.141+309.05+392.191+309.45+392.191C310.717+392.191+311.75+391.491+312.55+390.091C312.75+389.691+313.217+388.458+313.95+386.391L327.75+347.091C329.35+342.624+331.15+339.824+333.15+338.691C334.617+337.958+337.85+337.591+342.85+337.591C348.45+337.591+351.983+337.941+353.45+338.641C354.917+339.341+356.117+341.291+357.05+344.491L369.85+387.091C370.85+390.491+372.017+392.191+373.35+392.191C373.75+392.191+374.45+392.091+375.45+391.891L376.55+391.891C380.283+391.891+382.15+394.091+382.15+398.491C382.15+400.691+381.483+402.458+380.15+403.791C378.817+405.124+377.083+405.791+374.95+405.791C374.017+405.791+372.783+405.691+371.25+405.491C369.383+405.158+368.15+404.991+367.55+404.991C366.083+404.858+364.183+404.791+361.85+404.791C359.317+404.791+357.617+404.858+356.75+404.991C353.35+405.524+351.217+405.791+350.35+405.791C348.55+405.791+347.067+405.108+345.9+403.741C344.733+402.374+344.15+400.658+344.15+398.591C344.15+394.658+345.417+392.691+347.95+392.691C348.283+392.691+348.783+392.741+349.45+392.841C350.117+392.941+350.617+392.991+350.95+392.991C352.217+392.991+352.85+392.291+352.85+390.891C352.85+389.091+352.483+387.591+351.75+386.391C351.017+385.191+350.083+384.591+348.95+384.591ZM347.45+369.291L342.65+348.791L336.45+370.091C336.383+370.291+336.35+370.524+336.35+370.791C336.35+371.591+337.183+371.991+338.85+371.991L345.05+371.991C346.783+371.991+347.65+371.524+347.65+370.591C347.65+370.658+347.583+370.224+347.45+369.291Z" vectornator:shadowOffset="18.5012" fill="#dcc75a" opacity="1" vectornator:shadowAngle="1.5708"/>
<path vectornator:shadowColor="#dcc75a" vectornator:shadowOpacity="1" vectornator:shadowRadius="50" d="M403.95+353.591C409.083+353.591+413.417+355.024+416.95+357.891C417.217+355.091+419.017+353.691+422.35+353.691C425.75+353.691+427.45+354.891+427.45+357.291C427.45+358.091+427.317+358.991+427.05+359.991C426.85+361.191+426.75+362.324+426.75+363.391C426.75+363.591+426.783+364.124+426.85+364.991C426.85+365.858+426.85+366.624+426.85+367.291L426.85+367.691C426.85+371.224+425.083+372.991+421.55+372.991C419.017+372.991+416.817+371.724+414.95+369.191C412.683+366.124+409.917+364.591+406.65+364.591C402.783+364.591+400.85+365.924+400.85+368.591C400.85+369.991+401.483+370.974+402.75+371.541C404.017+372.108+407.35+372.858+412.75+373.791C417.15+374.591+420.4+375.491+422.5+376.491C424.6+377.491+426.317+378.924+427.65+380.791C429.317+383.191+430.15+385.991+430.15+389.191C430.15+394.258+428.2+398.491+424.3+401.891C420.4+405.291+415.517+406.991+409.65+406.991C403.783+406.991+398.45+405.124+393.65+401.391C393.65+404.658+391.983+406.291+388.65+406.291C385.05+406.291+383.25+404.824+383.25+401.891C383.25+401.224+383.317+400.191+383.45+398.791C383.583+397.391+383.65+396.358+383.65+395.691C383.65+395.091+383.6+394.191+383.5+392.991C383.4+391.791+383.35+390.891+383.35+390.291C383.35+387.291+385.217+385.791+388.95+385.791C390.75+385.791+392.117+386.058+393.05+386.591C393.983+387.124+394.983+388.158+396.05+389.691C397.717+392.158+399.25+393.774+400.65+394.541C402.05+395.308+404.117+395.691+406.85+395.691C411.65+395.691+414.05+394.191+414.05+391.191C414.05+389.124+412.117+387.691+408.25+386.891L402.45+385.691C397.717+384.691+394.367+383.691+392.4+382.691C390.433+381.691+388.883+380.108+387.75+377.941C386.617+375.774+386.05+373.291+386.05+370.491C386.05+365.491+387.7+361.424+391+358.291C394.3+355.158+398.617+353.591+403.95+353.591Z" vectornator:shadowOffset="18.5012" fill="#dcc75a" opacity="1" vectornator:shadowAngle="1.5708"/>
<path vectornator:shadowColor="#dcc75a" vectornator:shadowOpacity="1" vectornator:shadowRadius="50" d="M458.25+341.491L458.25+359.791C461.117+357.324+463.517+355.674+465.45+354.841C467.383+354.008+469.783+353.591+472.65+353.591C478.85+353.591+483.25+355.524+485.85+359.391C487.583+361.991+488.45+366.124+488.45+371.791L488.45+388.991C488.45+392.324+489.117+393.991+490.45+393.991C490.983+393.991+491.45+393.924+491.85+393.791C492.25+393.658+492.783+393.591+493.45+393.591C496.383+393.591+497.85+395.291+497.85+398.691C497.85+403.358+495.883+405.691+491.95+405.691C490.817+405.691+489.15+405.558+486.95+405.291C484.75+405.024+483.083+404.891+481.95+404.891C480.883+404.891+479.3+405.024+477.2+405.291C475.1+405.558+473.517+405.691+472.45+405.691C470.783+405.691+469.433+405.124+468.4+403.991C467.367+402.858+466.85+401.358+466.85+399.491C466.85+396.091+468.117+394.291+470.65+394.091C471.783+394.024+472.483+393.724+472.75+393.191C473.017+392.658+473.15+391.758+473.15+390.491L473.15+375.191C473.15+369.658+471.05+366.891+466.85+366.891C461.117+366.891+458.25+370.858+458.25+378.791L458.25+390.591C458.25+391.991+458.4+392.874+458.7+393.241C459+393.608+459.817+393.891+461.15+394.091C463.217+394.424+464.25+396.091+464.25+399.091C464.25+403.491+462.417+405.691+458.75+405.691C457.95+405.691+456.517+405.558+454.45+405.291C452.383+405.024+450.483+404.891+448.75+404.891C447.35+404.891+445.85+404.991+444.25+405.191C441.583+405.524+439.883+405.691+439.15+405.691C437.35+405.691+435.883+405.074+434.75+403.841C433.617+402.608+433.05+401.024+433.05+399.091C433.05+395.291+434.683+393.391+437.95+393.391C438.35+393.391+438.9+393.508+439.6+393.741C440.3+393.974+440.85+394.091+441.25+394.091C442.383+394.091+442.95+392.224+442.95+388.491L442.95+355.191C442.95+351.458+442.383+349.591+441.25+349.591C440.783+349.591+440.183+349.724+439.45+349.991C439.05+350.124+438.517+350.191+437.85+350.191C434.65+350.191+433.05+348.358+433.05+344.691C433.05+342.691+433.617+341.074+434.75+339.841C435.883+338.608+437.35+337.991+439.15+337.991C440.017+337.991+441.283+338.091+442.95+338.291C444.617+338.491+445.883+338.591+446.75+338.591C448.817+338.591+450.6+338.491+452.1+338.291C453.6+338.091+454.75+337.991+455.55+337.991C457.35+337.991+458.25+339.158+458.25+341.491Z" vectornator:shadowOffset="18.5012" fill="#dcc75a" opacity="1" vectornator:shadowAngle="1.5708"/>
<path vectornator:shadowColor="#dcc75a" vectornator:shadowOpacity="1" vectornator:shadowRadius="50" d="M521.85+368.691L521.85+372.791L521.75+378.991L521.55+385.691C521.483+387.891+521.45+388.791+521.45+388.391C521.45+392.324+522.717+394.291+525.25+394.291C527.65+394.291+528.85+392.524+528.85+388.991C528.85+388.458+528.817+388.058+528.75+387.791C528.75+387.458+528.75+387.024+528.75+386.491C528.683+386.024+528.65+385.691+528.65+385.491C528.65+381.891+530.45+380.091+534.05+380.091C538.25+380.091+540.35+383.458+540.35+390.191C540.35+395.458+538.783+399.574+535.65+402.541C532.517+405.508+528.15+406.991+522.55+406.991C511.55+406.991+506.05+401.191+506.05+389.591C506.05+387.724+506.133+384.924+506.3+381.191C506.467+377.458+506.55+374.658+506.55+372.791L506.55+369.591C506.55+367.924+506.4+366.874+506.1+366.441C505.8+366.008+505.083+365.791+503.95+365.791L502.35+365.791C501.083+365.791+500.05+365.308+499.25+364.341C498.45+363.374+498.05+362.124+498.05+360.591C498.05+359.058+498.467+357.741+499.3+356.641C500.133+355.541+501.117+354.991+502.25+354.991L504.15+354.991C505.75+354.991+506.683+354.524+506.95+353.591C507.15+353.058+507.25+352.158+507.25+350.891L507.25+345.991C507.25+343.658+507.867+342.058+509.1+341.191C510.333+340.324+512.583+339.891+515.85+339.891C518.183+339.891+519.767+340.224+520.6+340.891C521.433+341.558+521.85+343.024+521.85+345.291L521.85+350.691C521.85+352.624+522.033+353.824+522.4+354.291C522.767+354.758+523.717+354.991+525.25+354.991L532.45+354.991C536.383+354.991+538.35+356.824+538.35+360.491C538.35+364.024+536.55+365.791+532.95+365.791L524.75+365.791C523.35+365.791+522.517+366.024+522.25+366.491C521.983+366.958+521.85+367.691+521.85+368.691Z" vectornator:shadowOffset="18.5012" fill="#dcc75a" opacity="1" vectornator:shadowAngle="1.5708"/>
<path vectornator:shadowColor="#dcc75a" vectornator:shadowOpacity="1" vectornator:shadowRadius="50" d="M564.95+358.091L564.95+366.591C565.883+363.191+566.983+360.691+568.25+359.091C571.183+355.424+575.283+353.591+580.55+353.591C584.217+353.591+587.3+354.774+589.8+357.141C592.3+359.508+593.55+362.424+593.55+365.891C593.55+368.624+592.75+370.874+591.15+372.641C589.55+374.408+587.517+375.291+585.05+375.291C583.183+375.291+581.6+374.691+580.3+373.491C579+372.291+578.35+370.824+578.35+369.091C578.35+368.158+578.783+366.858+579.65+365.191L579.05+365.191C574.583+365.191+571.583+367.558+570.05+372.291C568.85+376.091+568.25+380.458+568.25+385.391L568.25+389.191C568.25+391.591+568.45+393.124+568.85+393.791C569.117+394.191+569.583+394.391+570.25+394.391C570.85+394.391+571.683+394.258+572.75+393.991C573.817+393.724+574.617+393.591+575.15+393.591C576.617+393.591+577.867+394.108+578.9+395.141C579.933+396.174+580.45+397.424+580.45+398.891C580.45+400.824+579.8+402.441+578.5+403.741C577.2+405.041+575.617+405.691+573.75+405.691C572.75+405.691+570.883+405.524+568.15+405.191C566.483+404.991+564.383+404.891+561.85+404.891C559.317+404.891+557.083+404.991+555.15+405.191C551.95+405.524+549.983+405.691+549.25+405.691C545.117+405.691+543.05+403.458+543.05+398.991C543.05+395.258+544.65+393.391+547.85+393.391C548.383+393.391+548.983+393.508+549.65+393.741C550.317+393.974+550.817+394.091+551.15+394.091C552.283+394.091+552.85+392.224+552.85+388.491L552.85+372.291C552.85+368.491+552.283+366.591+551.15+366.591C550.883+366.591+550.367+366.708+549.6+366.941C548.833+367.174+548.25+367.291+547.85+367.291C544.65+367.291+543.05+365.458+543.05+361.791C543.05+359.791+543.583+358.158+544.65+356.891C545.717+355.624+547.083+354.991+548.75+354.991C549.417+354.991+550.35+355.124+551.55+355.391C552.75+355.658+553.883+355.791+554.95+355.791C555.75+355.791+556.917+355.658+558.45+355.391C559.983+355.124+561.117+354.991+561.85+354.991C563.917+354.991+564.95+356.024+564.95+358.091Z" vectornator:shadowOffset="18.5012" fill="#dcc75a" opacity="1" vectornator:shadowAngle="1.5708"/>
<path vectornator:shadowColor="#dcc75a" vectornator:shadowOpacity="1" vectornator:shadowRadius="50" d="M640.25+406.991C634.783+406.991+631.117+404.791+629.25+400.391C624.583+404.791+619.05+406.991+612.65+406.991C607.383+406.991+603.183+405.608+600.05+402.841C596.917+400.074+595.35+396.391+595.35+391.791C595.35+384.791+598.383+380.258+604.45+378.191C607.05+377.324+610.05+376.591+613.45+375.991C618.183+375.191+621.4+374.274+623.1+373.241C624.8+372.208+625.65+370.624+625.65+368.491C625.65+366.958+625+365.674+623.7+364.641C622.4+363.608+620.783+363.091+618.85+363.091C616.65+363.091+615.55+363.791+615.55+365.191C615.55+365.658+615.583+366.124+615.65+366.591L615.65+366.991C615.65+368.858+614.867+370.424+613.3+371.691C611.733+372.958+609.783+373.591+607.45+373.591C604.783+373.591+602.583+372.791+600.85+371.191C599.117+369.591+598.25+367.591+598.25+365.191C598.25+361.591+600.15+358.758+603.95+356.691C607.75+354.624+612.983+353.591+619.65+353.591C626.85+353.591+632.217+354.691+635.75+356.891C639.55+359.291+641.45+363.758+641.45+370.291L641.45+390.991C641.45+393.124+641.983+394.191+643.05+394.191C643.583+394.191+644.083+394.158+644.55+394.091C644.75+394.024+644.983+393.991+645.25+393.991C646.783+393.991+648.083+394.524+649.15+395.591C650.217+396.658+650.75+397.958+650.75+399.491C650.75+401.691+649.767+403.491+647.8+404.891C645.833+406.291+643.317+406.991+640.25+406.991ZM625.75+385.591L625.75+383.391C625.283+383.658+622.35+384.491+616.95+385.891C613.283+386.824+611.45+388.258+611.45+390.191C611.45+393.258+613.25+394.791+616.85+394.791C622.783+394.791+625.75+391.724+625.75+385.591Z" vectornator:shadowOffset="18.5012" fill="#dcc75a" opacity="1" vectornator:shadowAngle="1.5708"/>
<path vectornator:shadowColor="#dcc75a" vectornator:shadowOpacity="1" vectornator:shadowRadius="50" d="M675.75+370.091L682.55+391.591L689.35+370.991C689.883+369.391+690.15+368.191+690.15+367.391C690.15+366.658+689.617+366.091+688.55+365.691L686.75+364.991C685.35+364.458+684.65+363.058+684.65+360.791C684.65+359.124+685.133+357.741+686.1+356.641C687.067+355.541+688.283+354.991+689.75+354.991C690.75+354.991+692.283+355.124+694.35+355.391C696.417+355.658+697.95+355.791+698.95+355.791C700.017+355.791+701.617+355.658+703.75+355.391C705.883+355.124+707.483+354.991+708.55+354.991C712.55+354.991+714.55+357.158+714.55+361.491C714.55+363.024+714.1+364.374+713.2+365.541C712.3+366.708+711.217+367.291+709.95+367.291C709.683+367.291+709.233+367.224+708.6+367.091C707.967+366.958+707.517+366.891+707.25+366.891C706.05+366.891+705.083+367.891+704.35+369.891L703.05+373.391L694.45+395.791C691.783+402.724+689.933+407.224+688.9+409.291C687.867+411.358+686.383+413.624+684.45+416.091C679.117+422.824+672.583+426.191+664.85+426.191C660.117+426.191+656.217+425.058+653.15+422.791C650.083+420.524+648.55+417.624+648.55+414.091C648.55+411.624+649.333+409.608+650.9+408.041C652.467+406.474+654.45+405.691+656.85+405.691C658.917+405.691+660.583+406.308+661.85+407.541C663.117+408.774+663.75+410.358+663.75+412.291C663.75+413.024+663.683+413.758+663.55+414.491C664.417+414.891+665.25+415.091+666.05+415.091C667.85+415.091+669.567+414.024+671.2+411.891C672.833+409.758+673.65+407.958+673.65+406.491C673.65+405.158+672.517+401.791+670.25+396.391L659.05+369.891C658.25+368.024+657.45+367.091+656.65+367.091C656.583+367.091+656.083+367.158+655.15+367.291C655.083+367.291+654.95+367.291+654.75+367.291C654.55+367.358+654.383+367.391+654.25+367.391C650.85+367.391+649.15+365.491+649.15+361.691C649.15+359.824+649.733+358.241+650.9+356.941C652.067+355.641+653.517+354.991+655.25+354.991C656.317+354.991+657.9+355.124+660+355.391C662.1+355.658+663.683+355.791+664.75+355.791C666.017+355.791+668.15+355.658+671.15+355.391C674.15+355.124+675.75+354.991+675.95+354.991C679.617+354.991+681.45+356.924+681.45+360.791C681.45+363.524+680.05+365.124+677.25+365.591C675.85+365.791+675.15+366.391+675.15+367.391C675.15+367.924+675.35+368.824+675.75+370.091Z" vectornator:shadowOffset="18.5012" fill="#dcc75a" opacity="1" vectornator:shadowAngle="1.5708"/>
</g>
</g>
</svg>
