<?xml version="1.0" encoding="utf-8"?>
<!-- Generator: Adobe Illustrator 26.0.1, SVG Export Plug-In . SVG Version: 6.00 Build 0)  -->
<svg version="1.1" id="history" xmlns="http://www.w3.org/2000/svg" xmlns:xlink="http://www.w3.org/1999/xlink" x="0px" y="0px"
	 viewBox="0 0 3300 2200" style="enable-background:new 0 0 3300 2200;" xml:space="preserve">
<style type="text/css">
	.st0{fill:#FFFFFF;}
	.st1{fill:none;stroke:#000000;stroke-width:0.5;}
	.st2{font-family:'Helvetica-Bold';}
	.st3{font-size:13px;}
	.st4{font-family:'Helvetica';}
	.st5{fill:none;stroke:#00AEEF;stroke-width:0.5;}
	.st6{fill:#27AAE1;}
	.st7{fill:none;stroke:#27AAE1;stroke-width:0.5;}
</style>
<g id="Notes">
	<rect id="artboard" class="st0" width="3300" height="2200"/>
	<line class="st1" x1="263" y1="292" x2="3036" y2="292"/>
	<text transform="matrix(1 0 0 1 263 322)" class="st2 st3">Weight/Scale Variations</text>
	<text transform="matrix(1 0 0 1 534.0633 322)" class="st4 st3">Ultralight</text>
	<text transform="matrix(1 0 0 1 843.7775 322)" class="st4 st3">Thin</text>
	<text transform="matrix(1 0 0 1 1139.035 322)" class="st4 st3">Light</text>
	<text transform="matrix(1 0 0 1 1427.0773 322)" class="st4 st3">Regular</text>
	<text transform="matrix(1 0 0 1 1723.4419 322)" class="st4 st3">Medium</text>
	<text transform="matrix(1 0 0 1 2016.1719 322)" class="st4 st3">Semibold</text>
	<text transform="matrix(1 0 0 1 2326.9705 322)" class="st4 st3">Bold</text>
	<text transform="matrix(1 0 0 1 2618.2659 322)" class="st4 st3">Heavy</text>
	<text transform="matrix(1 0 0 1 2917.5054 322)" class="st4 st3">Black</text>
	<line class="st1" x1="263" y1="1903" x2="3036" y2="1903"/>
	<g transform="matrix(1 0 0 1 263 1933)">
		<path d="M9.2,0.8c1.1,0,2.1-0.2,3-0.6c1-0.4,1.8-1,2.5-1.7S16-3.1,16.4-4C16.8-5,17-6,17-7s-0.2-2.1-0.6-3c-0.4-1-1-1.8-1.7-2.5
			s-1.6-1.3-2.5-1.7c-1-0.4-2-0.6-3-0.6c-1.1,0-2.1,0.2-3,0.6s-1.8,1-2.5,1.7C3-11.9,2.4-11,2-10.1c-0.4,1-0.6,2-0.6,3S1.6-5,2-4
			s1,1.8,1.7,2.5s1.6,1.3,2.5,1.7C7.2,0.6,8.2,0.8,9.2,0.8z M9.2-0.7c-0.9,0-1.7-0.2-2.5-0.5C6-1.5,5.3-1.9,4.7-2.5s-1-1.3-1.4-2
			C3-5.3,2.9-6.2,2.9-7.1s0.2-1.7,0.5-2.5s0.8-1.5,1.4-2c0.6-0.6,1.3-1,2-1.4c0.8-0.3,1.6-0.5,2.5-0.5s1.7,0.2,2.5,0.5
			s1.5,0.8,2,1.4c0.6,0.6,1,1.3,1.4,2c0.3,0.8,0.5,1.6,0.5,2.5s-0.2,1.7-0.5,2.5s-0.8,1.5-1.4,2c-0.6,0.6-1.3,1-2,1.4
			C11-0.8,10.1-0.7,9.2-0.7z M5.7-7.1c0,0.2,0.1,0.4,0.2,0.5C6-6.4,6.2-6.3,6.4-6.3h2.1v2.1c0,0.2,0.1,0.4,0.2,0.5
			C8.8-3.5,9-3.5,9.2-3.5s0.4-0.1,0.5-0.2C9.9-3.8,10-4,10-4.2v-2.1h2.1c0.2,0,0.4-0.1,0.5-0.2s0.2-0.3,0.2-0.5s-0.1-0.4-0.2-0.5
			c-0.1-0.1-0.3-0.2-0.5-0.2H10v-2.1c0-0.2-0.1-0.4-0.2-0.5c-0.1-0.1-0.3-0.2-0.5-0.2s-0.4,0.1-0.5,0.2C8.7-10.2,8.6-10,8.6-9.8v2.1
			H6.4C6.2-7.8,6-7.7,5.9-7.6C5.7-7.5,5.7-7.3,5.7-7.1z"/>
	</g>
	<g transform="matrix(1 0 0 1 281.867 1933)">
		<path d="M11.7,2.9c1.4,0,2.6-0.3,3.8-0.8s2.3-1.2,3.2-2.2c0.9-0.9,1.6-2,2.2-3.2c0.5-1.2,0.8-2.5,0.8-3.8c0-1.4-0.3-2.6-0.8-3.8
			s-1.2-2.3-2.2-3.2c-0.9-0.9-2-1.6-3.2-2.2c-1.2-0.5-2.5-0.8-3.8-0.8s-2.6,0.3-3.8,0.8s-2.3,1.2-3.2,2.2c-0.9,0.9-1.6,2-2.2,3.2
			C2-9.7,1.7-8.4,1.7-7.1c0,1.4,0.3,2.6,0.8,3.8S3.8-0.9,4.7,0s2,1.6,3.2,2.2S10.3,2.9,11.7,2.9z M11.7,1.2c-1.2,0-2.2-0.2-3.2-0.6
			s-1.9-1-2.6-1.8C5.1-1.9,4.5-2.8,4.1-3.8S3.4-5.9,3.4-7.1S3.6-9.3,4-10.3s1-1.9,1.8-2.6c0.8-0.8,1.6-1.4,2.6-1.8
			c1-0.4,2.1-0.6,3.2-0.6s2.2,0.2,3.2,0.6c1,0.4,1.9,1,2.6,1.8c0.8,0.8,1.4,1.6,1.8,2.6s0.6,2.1,0.6,3.2c0,1.2-0.2,2.2-0.6,3.2
			s-1,1.9-1.8,2.6c-0.8,0.8-1.6,1.4-2.6,1.8S12.9,1.2,11.7,1.2z M7.2-7.1c0,0.2,0.1,0.4,0.2,0.6C7.6-6.3,7.8-6.2,8-6.2h2.9v2.9
			c0,0.2,0.1,0.4,0.2,0.6c0.1,0.2,0.3,0.2,0.6,0.2c0.2,0,0.4-0.1,0.6-0.2c0.2-0.2,0.2-0.4,0.2-0.6v-2.9h2.9c0.2,0,0.4-0.1,0.6-0.2
			s0.2-0.3,0.2-0.6c0-0.2-0.1-0.4-0.2-0.6c-0.2-0.2-0.4-0.2-0.6-0.2h-2.9v-2.9c0-0.3-0.1-0.5-0.2-0.6s-0.4-0.2-0.6-0.2
			c-0.2,0-0.4,0.1-0.6,0.2c-0.1,0.2-0.2,0.4-0.2,0.6v2.9H8c-0.3,0-0.5,0.1-0.6,0.2C7.3-7.5,7.2-7.3,7.2-7.1z"/>
	</g>
	<g transform="matrix(1 0 0 1 305.646 1933)">
		<path d="M15,5.7c1.4,0,2.7-0.2,4-0.6s2.4-1,3.5-1.8s2-1.7,2.8-2.8C26-0.6,26.6-1.8,27-3.1s0.6-2.6,0.6-4s-0.2-2.7-0.6-4
			s-1-2.4-1.8-3.5s-1.7-2-2.8-2.8c-1.1-0.8-2.2-1.4-3.5-1.8s-2.6-0.6-4-0.6s-2.7,0.2-4,0.6s-2.4,1-3.5,1.8s-2,1.7-2.8,2.8
			s-1.4,2.2-1.8,3.5s-0.6,2.6-0.6,4s0.2,2.7,0.6,4s1,2.4,1.8,3.5s1.7,2,2.8,2.8C8.6,4,9.7,4.6,11,5C12.2,5.4,13.6,5.7,15,5.7z
			 M15,3.8c-1.2,0-2.4-0.2-3.4-0.6c-1.1-0.4-2.1-0.9-3-1.5c-1-0.6-1.8-1.4-2.4-2.3C5.5-1.5,5-2.5,4.6-3.6C4.3-4.7,4.1-5.8,4.1-7.1
			c0-1.2,0.2-2.4,0.5-3.5c0.4-1.1,0.9-2.1,1.5-3c0.7-0.9,1.4-1.7,2.4-2.4c0.9-0.7,1.9-1.2,3-1.5c1.1-0.4,2.2-0.5,3.4-0.5
			s2.4,0.2,3.5,0.5c1.1,0.4,2.1,0.9,3,1.5c0.9,0.7,1.7,1.5,2.4,2.4c0.7,0.9,1.2,1.9,1.5,3c0.4,1.1,0.6,2.2,0.6,3.5
			c0,1.2-0.2,2.4-0.5,3.4c-0.4,1.1-0.9,2.1-1.5,3c-0.7,0.9-1.5,1.7-2.4,2.4s-1.9,1.2-3,1.5C17.3,3.7,16.2,3.8,15,3.8z M9.2-7.1
			c0,0.3,0.1,0.5,0.3,0.6c0.2,0.2,0.4,0.2,0.7,0.2h3.9v4c0,0.3,0.1,0.5,0.2,0.7c0.2,0.2,0.4,0.3,0.6,0.3c0.3,0,0.5-0.1,0.7-0.3
			s0.3-0.4,0.3-0.7v-4h4c0.3,0,0.5-0.1,0.7-0.2c0.2-0.2,0.3-0.4,0.3-0.6c0-0.3-0.1-0.5-0.3-0.7C20.3-7.9,20.1-8,19.8-8h-4v-3.9
			c0-0.3-0.1-0.5-0.3-0.7s-0.4-0.3-0.7-0.3s-0.5,0.1-0.6,0.3C14-12.4,14-12.2,14-11.9V-8h-3.9C9.8-8,9.6-7.9,9.5-7.7
			C9.3-7.5,9.2-7.3,9.2-7.1z"/>
	</g>
	<text transform="matrix(1 0 0 1 263 1953)" class="st2 st3">Design Variations</text>
	<text transform="matrix(1 0 0 1 263 1971)" class="st4 st3">Symbols are supported in up to nine weights and three scales.</text>
	<text transform="matrix(1 0 0 1 263 1989)" class="st4 st3">For optimal layout with text and other symbols, vertically align</text>
	<text transform="matrix(1 0 0 1 263 2007)" class="st4 st3">symbols with the adjacent text.</text>
	<line class="st5" x1="776" y1="1919" x2="776" y2="1933"/>
	<g transform="matrix(1 0 0 1 776 1933)">
		<path d="M3.3,0.2c0.3,0,0.5-0.1,0.6-0.2C4-0.1,4.2-0.3,4.3-0.6L5.5-4h5.8l1.3,3.4C12.7-0.3,12.8-0.1,13,0c0.1,0.1,0.3,0.2,0.6,0.2
			s0.5-0.1,0.6-0.2c0.2-0.1,0.2-0.3,0.2-0.6c0-0.1,0-0.3-0.1-0.5L9.7-13.4c-0.1-0.3-0.3-0.5-0.5-0.7c-0.2-0.1-0.5-0.2-0.8-0.2
			c-0.6,0-1,0.3-1.2,0.9L2.6-1.2C2.5-1,2.5-0.8,2.5-0.6S2.6-0.2,2.7,0S3.1,0.2,3.3,0.2z M6-5.5l2.4-6.6l0,0l2.4,6.6
			C10.8-5.5,6-5.5,6-5.5z"/>
	</g>
	<line class="st5" x1="793.2" y1="1919" x2="793.2" y2="1933"/>
	<text transform="matrix(1 0 0 1 776 1953)" class="st2 st3">Margins</text>
	<text transform="matrix(1 0 0 1 776 1971)" class="st4 st3">Leading and trailing margins on the left and right side of each symbol</text>
	<text transform="matrix(1 0 0 1 776 1989)" class="st4 st3">can be adjusted by modifying the x-location of the margin guidelines.</text>
	<text transform="matrix(1 0 0 1 776 2007)" class="st4 st3">Modifications are automatically applied proportionally to all</text>
	<text transform="matrix(1 0 0 1 776 2025)" class="st4 st3">scales and weights.</text>
	<g transform="matrix(1 0 0 1 1289 1933)">
		<path d="M2.8,1.9l1.7,1.7C5,4,5.4,4.2,5.9,4.2s0.9-0.3,1.4-0.8L18-8.4l-1-1L6.4,2.3C6.2,2.5,6.1,2.6,5.9,2.6S5.5,2.5,5.3,2.3
			L4.1,1.1C3.9,0.9,3.8,0.7,3.8,0.5S3.9,0.1,4.1,0l11.5-10.8l-1-1L3-0.9C2.6-0.4,2.3,0,2.3,0.5C2.2,1,2.4,1.4,2.8,1.9z M9.3-16.3
			c-0.2,0.2-0.3,0.4-0.4,0.7c0,0.3,0,0.5,0.1,0.7s0.3,0.3,0.5,0.4c0.2,0.1,0.5,0.1,0.8,0c0.7-0.2,1.5-0.2,2.2-0.2s1.5,0.3,2.2,0.7
			l-0.6,1.5c-0.2,0.4-0.2,0.8-0.1,1.1c0.1,0.3,0.2,0.6,0.5,0.9l2.3,2.3C17-8,17.3-7.8,17.5-7.8s0.5,0,0.8,0L19.4-8l0.7,0.7v0.6
			c0,0.2,0,0.5,0.1,0.7s0.2,0.4,0.5,0.7l0.8,0.7c0.2,0.2,0.5,0.4,0.8,0.4s0.5-0.1,0.8-0.3L26-7.4c0.2-0.2,0.3-0.5,0.3-0.8
			c0-0.3-0.1-0.5-0.4-0.8L25-9.9c-0.2-0.2-0.5-0.4-0.7-0.5s-0.4-0.1-0.7-0.1H23l-0.6-0.6l0.2-1.1c0.1-0.3,0.1-0.5,0-0.8
			s-0.3-0.5-0.6-0.8L19.9-16c-0.8-0.8-1.7-1.4-2.7-1.9c-0.9-0.4-1.9-0.6-2.8-0.6c-1,0-1.9,0.2-2.8,0.5C10.8-17.6,10-17.1,9.3-16.3z
			 M10.8-16c0.6-0.4,1.3-0.8,1.9-0.9c0.7-0.2,1.4-0.2,2.1-0.2c0.7,0.1,1.4,0.3,2.1,0.6c0.7,0.3,1.3,0.7,1.8,1.3l2.4,2.4
			c0.1,0.1,0.2,0.2,0.2,0.3s0,0.3,0,0.4L21-10.5L22.5-9l1-0.1c0.1,0,0.2,0,0.3,0c0.1,0,0.1,0.1,0.2,0.2l0.6,0.6l-2.4,2.4l-0.6-0.6
			c-0.1-0.1-0.2-0.2-0.2-0.2c0-0.1,0-0.2,0-0.3l0.1-1L20-9.5l-1.5,0.3c-0.2,0-0.3,0-0.4,0s-0.2-0.1-0.3-0.2l-2-2
			c-0.1-0.1-0.2-0.2-0.2-0.3s0-0.3,0.1-0.4l0.9-2.1c-0.8-0.7-1.7-1.2-2.6-1.5c-1-0.3-2-0.3-3,0c-0.1,0-0.1,0-0.2,0
			C10.7-15.9,10.7-15.9,10.8-16z"/>
	</g>
	<text transform="matrix(1 0 0 1 1289 1953)" class="st2 st3">Exporting</text>
	<text transform="matrix(1 0 0 1 1289 1971)" class="st4 st3">Symbols should be outlined when exporting to ensure the</text>
	<text transform="matrix(1 0 0 1 1289 1989)" class="st4 st3">design is preserved when submitting to Xcode.</text>
	<text id="template-version" transform="matrix(1 0 0 1 2952.4141 1933)" class="st4 st3">Template v.3.0</text>
	<text transform="matrix(1 0 0 1 2865.4575 1951)" class="st4 st3">Requires Xcode 13 or greater</text>
	<text id="descriptive-name" transform="matrix(1 0 0 1 2891.4766 1969)" class="st4 st3">Generated from calendar</text>
	<text transform="matrix(1 0 0 1 2912.4111 1987)" class="st4 st3">Typeset at 100 points</text>
	<text transform="matrix(1 0 0 1 263 726)" class="st4 st3">Small</text>
	<text transform="matrix(1 0 0 1 263 1156)" class="st4 st3">Medium</text>
	<text transform="matrix(1 0 0 1 263 1586)" class="st4 st3">Large</text>
</g>
<g id="Guides">
	<g id="H-reference" transform="matrix(1 0 0 1 339 696)">
		<path class="st6" d="M1,0h2.6l25.7-67.1H30v-3.3h-1.9L1,0z M11.7-24.5H47l-0.8-2.2H12.4L11.7-24.5z M55.1,0h2.6L30.6-70.5h-1.2
			v3.3L55.1,0z"/>
	</g>
	<line id="Baseline-S" class="st7" x1="263" y1="696" x2="3036" y2="696"/>
	<line id="Capline-S" class="st7" x1="263" y1="625.5" x2="3036" y2="625.5"/>
	<g id="H-reference_00000064337378477774416470000005080821220250746039_" transform="matrix(1 0 0 1 339 1126)">
		<path class="st6" d="M1,0h2.6l25.7-67.1H30v-3.3h-1.9L1,0z M11.7-24.5H47l-0.8-2.2H12.4L11.7-24.5z M55.1,0h2.6L30.6-70.5h-1.2
			v3.3L55.1,0z"/>
	</g>
	<line id="Baseline-M" class="st7" x1="263" y1="1126" x2="3036" y2="1126"/>
	<line id="Capline-M" class="st7" x1="263" y1="1055.5" x2="3036" y2="1055.5"/>
	<g id="H-reference_00000021108322692911122330000005278431364597269680_" transform="matrix(1 0 0 1 339 1556)">
		<path class="st6" d="M1,0h2.6l25.7-67.1H30v-3.3h-1.9L1,0z M11.7-24.5H47l-0.8-2.2H12.4L11.7-24.5z M55.1,0h2.6L30.6-70.5h-1.2
			v3.3L55.1,0z"/>
	</g>
	<line id="Baseline-L" class="st7" x1="263" y1="1556" x2="3036" y2="1556"/>
	<line id="Capline-L" class="st7" x1="263" y1="1485.5" x2="3036" y2="1485.5"/>
	<line id="left-margin-Ultralight-S" class="st5" x1="512.5" y1="600.8" x2="512.5" y2="720.1"/>
	<line id="right-margin-Ultralight-S" class="st5" x1="606.9" y1="600.8" x2="606.9" y2="720.1"/>
	<line id="left-margin-Regular-S" class="st5" x1="1401.8" y1="600.8" x2="1401.8" y2="720.1"/>
	<line id="right-margin-Regular-S" class="st5" x1="1497.9" y1="600.8" x2="1497.9" y2="720.1"/>
	<line id="left-margin-Black-S" class="st5" x1="2881.1" y1="600.8" x2="2881.1" y2="720.1"/>
	<line id="right-margin-Black-S" class="st5" x1="2985.7" y1="600.8" x2="2985.7" y2="720.1"/>
</g>
<g id="Symbols">
	<g id="Black-S" transform="matrix(1 0 0 1 2881.11 696)">
		<path id="_x3C_Compound_Path_x3E__00000047020391895735407660000002525591926663908256_" d="M77.2-18L65-15l-3,4.9l15.2,9.2l3-4.9
			L77.2-18z M71.6-8.6c-1-0.6-1.4-2-0.7-3.1c0.6-1,2-1.4,3.1-0.7s1.4,2,0.7,3.1C74.1-8.4,72.6-8.1,71.6-8.6z M75.2-31.5l-8.4,13.9
			l12.2-3l3,12.2l8.4-13.9L75.2-31.5z M83.2-20.6l-6.3-3.8l1.1-1.9l6.3,3.8L83.2-20.6z M31.6,0L13.8-16.9l0,0l3-3.1l0,0L34.6-3.1
			l0,0L31.6,0L31.6,0z M13.1-17.7l-0.9-0.9l0,0l3-3.1l0,0l0.9,0.9l0,0L13.1-17.7L13.1-17.7z M11.4-19.4l-0.9-0.9l0,0l3-3.1l0,0
			l0.9,0.9l0,0L11.4-19.4L11.4-19.4z M10.4-3.1l17.5-17.3l0,0l3.1,3.1l0,0L13.5,0l0,0L10.4-3.1L10.4-3.1z M28.7-21.2l0.9-0.9l0,0
			l3.1,3.1l0,0l-0.9,0.9l0,0L28.7-21.2L28.7-21.2z M30.4-22.8l0.9-0.9l0,0l3.1,3.1l0,0l-0.9,0.9l0,0L30.4-22.8L30.4-22.8z
			 M40.7-30.1c0,0.6,0.2,1.1,0.4,1.5c0.2,0.3,0.7,0.4,1.5,0.4h2.3c0.6,0,1.1-0.2,1.5-0.4c0.3-0.2,0.4-0.7,0.4-1.5v-2.3
			c0-0.7-0.2-1.2-0.4-1.5c-0.2-0.2-0.7-0.4-1.5-0.4h-2.3c-0.6,0-1.1,0.2-1.5,0.4c-0.2,0.2-0.4,0.7-0.4,1.5V-30.1z M42.6-41.1h2.3
			c0.6,0,1.1-0.2,1.5-0.4s0.4-0.7,0.4-1.5v-2.3c0-0.6-0.2-1.1-0.4-1.4s-0.7-0.4-1.5-0.4h-2.3c-0.6,0-1.1,0.2-1.5,0.4
			c-0.2,0.2-0.4,0.7-0.4,1.4v2.3c0,0.6,0.2,1.1,0.4,1.5C41.4-41.2,41.9-41.1,42.6-41.1z M40.7-17.2c0,0.7,0.2,1.2,0.4,1.5
			c0.2,0.2,0.7,0.4,1.5,0.4h2.3c0.6,0,1.1-0.2,1.5-0.4c0.3-0.2,0.4-0.7,0.4-1.5v-2.2c0-0.7-0.2-1.2-0.4-1.5
			c-0.2-0.2-0.7-0.4-1.5-0.4h-2.3c-0.6,0-1.1,0.2-1.5,0.4c-0.2,0.2-0.4,0.7-0.4,1.5V-17.2z M31.9-28.3c0.6,0,1.1-0.2,1.5-0.4
			c0.3-0.2,0.4-0.7,0.4-1.5v-2.2c0-0.7-0.2-1.2-0.4-1.5c-0.2-0.2-0.7-0.4-1.5-0.4h-2.3c-0.7,0-1.2,0.2-1.5,0.4
			c-0.2,0.2-0.4,0.7-0.4,1.5v2.3c0,0.6,0.2,1.1,0.4,1.5c0.2,0.3,0.7,0.4,1.5,0.4L31.9-28.3L31.9-28.3z M68.7-41.1H71
			c0.7,0,1.2-0.2,1.5-0.4s0.4-0.7,0.4-1.5v-2.3c0-0.6-0.2-1.1-0.4-1.4s-0.7-0.4-1.5-0.4h-2.3c-0.7,0-1.2,0.2-1.5,0.4
			s-0.4,0.7-0.4,1.4v2.3c0,0.6,0.2,1.1,0.4,1.5C67.6-41.3,68.1-41.1,68.7-41.1z M66.9-30.1c0,0.6,0.2,1.1,0.4,1.5
			c0.2,0.2,0.7,0.4,1.5,0.4h2.3c0.7,0,1.2-0.2,1.5-0.4c0.2-0.2,0.4-0.7,0.4-1.5v-2.3c0-0.7-0.2-1.2-0.4-1.5
			c-0.2-0.2-0.7-0.4-1.5-0.4h-2.3c-0.7,0-1.2,0.2-1.5,0.4c-0.2,0.2-0.4,0.7-0.4,1.5V-30.1z M53.9-17.2c0,0.7,0.2,1.2,0.4,1.5
			c0.2,0.2,0.7,0.4,1.5,0.4h2.3c0.7,0,1.2-0.2,1.5-0.4c0.2-0.2,0.4-0.7,0.4-1.5v-2.2c0-0.7-0.2-1.2-0.4-1.5
			c-0.2-0.2-0.7-0.4-1.5-0.4h-2.3c-0.6,0-1.1,0.2-1.5,0.4c-0.2,0.2-0.4,0.7-0.4,1.5V-17.2z M55.7-41.1H58c0.7,0,1.2-0.2,1.5-0.4
			c0.2-0.2,0.4-0.7,0.4-1.5v-2.3c0-0.6-0.2-1.1-0.4-1.4c-0.2-0.2-0.7-0.4-1.5-0.4h-2.3c-0.6,0-1.1,0.2-1.5,0.4
			c-0.2,0.2-0.4,0.7-0.4,1.4v2.3c0,0.6,0.2,1.1,0.4,1.5C54.4-41.2,54.9-41.1,55.7-41.1z M53.9-30.1c0,0.6,0.2,1.1,0.4,1.5
			c0.2,0.3,0.7,0.4,1.5,0.4h2.3c0.7,0,1.2-0.2,1.5-0.4c0.2-0.2,0.4-0.7,0.4-1.5v-2.3c0-0.7-0.2-1.2-0.4-1.5
			c-0.2-0.2-0.7-0.4-1.5-0.4h-2.3c-0.6,0-1.1,0.2-1.5,0.4c-0.2,0.2-0.4,0.7-0.4,1.5V-30.1z M33.2-15.8c0.2-0.2,0.4-0.7,0.4-1.5v-1.3
			h-0.2l-3.1,3.1h1.5C32.4-15.4,32.9-15.6,33.2-15.8z M17.2-12.3l-6.1-5.9v5.1c0,2.7,0.5,4.8,1.4,6.7v-0.2l5.1-4.8
			C17.4-11.8,17.2-12.3,17.2-12.3z M22.7-7.2c-0.2,0-0.4,0-0.6,0l0,0L16.7-2c1.8,0.8,3.9,1.2,6.5,1.2h6.2L22.7-7.2L22.7-7.2z
			 M64.2-7.2H31.4l4.4,3.9l-2.3,2.5c13.8,0,27.6,0,41.3,0C72.1-2.7,64.2-7.2,64.2-7.2z M86.4-3.9c2-2,3.1-5.1,3.1-9.1v-5.2v-0.4
			L78.9-0.9c0.1,0,0.2,0,0.2,0C82.2-1.2,84.6-2.2,86.4-3.9z M86.4-70.2c-2-2-5.2-3.1-9.3-3.1H23.4c-4.1,0-7.2,1-9.3,3.1
			S11-65.1,11-61v38.9l2.3-2.4l4.1,3.5v-28.8c0-1.8,0.5-3.1,1.5-4.1s2.3-1.4,4-1.4h54.9c1.8,0,3.1,0.5,4,1.4c1,1,1.5,2.3,1.5,4.1
			v20.6v0.9l6.3,3.8v-1v-35.6C89.4-65.2,88.4-68.2,86.4-70.2z"/>
	</g>
	<g id="Regular-S" transform="matrix(1 0 0 1 1401.8 696)">
		<path id="_x3C_Compound_Path_x3E__00000108302313568898918620000009282438678157195919_" d="M74.6-16.9l-12.2,3l-3,4.9l15.2,9.2
			l3-4.9L74.6-16.9z M69-7.5c-1-0.6-1.4-2-0.7-3.1c0.6-1,2-1.4,3.1-0.7s1.4,2,0.7,3.1C71.5-7.3,70-7,69-7.5z M72.6-30.4l-8.4,13.9
			l12.2-3l3,12.2l8.4-13.9L72.6-30.4z M80.6-19.5l-6.3-3.8l1.1-1.9l6.3,3.8L80.6-19.5z M29,1.1L11.2-15.8l0,0l3-3.1l0,0L32-2l0,0
			L29,1.1L29,1.1z M10.5-16.6l-0.9-0.9l0,0l3-3.1l0,0l0.9,0.9l0,0L10.5-16.6L10.5-16.6z M8.8-18.3l-0.9-0.9l0,0l3-3.1l0,0l0.9,0.9
			l0,0L8.8-18.3L8.8-18.3z M7.8-2l17.5-17.3l0,0l3.1,3.1l0,0L10.9,1.1l0,0L7.8-2L7.8-2z M26.1-20.1L27-21l0,0l3.1,3.1l0,0L29.2-17
			l0,0L26.1-20.1L26.1-20.1z M27.8-21.7l0.9-0.9l0,0l3.1,3.1l0,0l-0.9,0.9l0,0L27.8-21.7L27.8-21.7z M38.1-29c0,0.6,0.2,1.1,0.4,1.5
			c0.2,0.3,0.7,0.4,1.5,0.4h2.3c0.6,0,1.1-0.2,1.5-0.4c0.3-0.2,0.4-0.7,0.4-1.5v-2.3c0-0.7-0.2-1.2-0.4-1.5
			c-0.2-0.2-0.7-0.4-1.5-0.4H40c-0.6,0-1.1,0.2-1.5,0.4c-0.2,0.2-0.4,0.7-0.4,1.5V-29z M40-40h2.3c0.6,0,1.1-0.2,1.5-0.4
			s0.4-0.7,0.4-1.5v-2.3c0-0.6-0.2-1.1-0.4-1.4S43.1-46,42.3-46H40c-0.6,0-1.1,0.2-1.5,0.4c-0.2,0.2-0.4,0.7-0.4,1.4v2.3
			c0,0.6,0.2,1.1,0.4,1.5C38.8-40.1,39.3-40,40-40z M38.1-16.1c0,0.7,0.2,1.2,0.4,1.5c0.2,0.2,0.7,0.4,1.5,0.4h2.3
			c0.6,0,1.1-0.2,1.5-0.4c0.3-0.2,0.4-0.7,0.4-1.5v-2.2c0-0.7-0.2-1.2-0.4-1.5c-0.2-0.2-0.7-0.4-1.5-0.4H40c-0.6,0-1.1,0.2-1.5,0.4
			c-0.2,0.2-0.4,0.7-0.4,1.5V-16.1z M29.3-27.2c0.6,0,1.1-0.2,1.5-0.4c0.3-0.2,0.4-0.7,0.4-1.5v-2.2c0-0.7-0.2-1.2-0.4-1.5
			c-0.2-0.2-0.7-0.4-1.5-0.4H27c-0.7,0-1.2,0.2-1.5,0.4c-0.2,0.2-0.4,0.7-0.4,1.5v2.3c0,0.6,0.2,1.1,0.4,1.5
			c0.2,0.3,0.7,0.4,1.5,0.4L29.3-27.2L29.3-27.2z M66.1-40h2.3c0.7,0,1.2-0.2,1.5-0.4s0.4-0.7,0.4-1.5v-2.3c0-0.6-0.2-1.1-0.4-1.4
			S69.2-46,68.4-46h-2.3c-0.7,0-1.2,0.2-1.5,0.4s-0.4,0.7-0.4,1.4v2.3c0,0.6,0.2,1.1,0.4,1.5C65-40.2,65.5-40,66.1-40z M64.3-29
			c0,0.6,0.2,1.1,0.4,1.5c0.2,0.2,0.7,0.4,1.5,0.4h2.3c0.7,0,1.2-0.2,1.5-0.4c0.2-0.2,0.4-0.7,0.4-1.5v-2.3c0-0.7-0.2-1.2-0.4-1.5
			c-0.2-0.2-0.7-0.4-1.5-0.4h-2.3c-0.7,0-1.2,0.2-1.5,0.4c-0.2,0.2-0.4,0.7-0.4,1.5V-29z M51.3-16.1c0,0.7,0.2,1.2,0.4,1.5
			c0.2,0.2,0.7,0.4,1.5,0.4h2.3c0.7,0,1.2-0.2,1.5-0.4c0.2-0.2,0.4-0.7,0.4-1.5v-2.2c0-0.7-0.2-1.2-0.4-1.5
			c-0.2-0.2-0.7-0.4-1.5-0.4h-2.3c-0.6,0-1.1,0.2-1.5,0.4c-0.2,0.2-0.4,0.7-0.4,1.5V-16.1z M53.1-40h2.3c0.7,0,1.2-0.2,1.5-0.4
			c0.2-0.2,0.4-0.7,0.4-1.5v-2.3c0-0.6-0.2-1.1-0.4-1.4c-0.2-0.2-0.7-0.4-1.5-0.4h-2.3c-0.6,0-1.1,0.2-1.5,0.4
			c-0.2,0.2-0.4,0.7-0.4,1.4v2.3c0,0.6,0.2,1.1,0.4,1.5C51.8-40.1,52.3-40,53.1-40z M51.3-29c0,0.6,0.2,1.1,0.4,1.5
			c0.2,0.3,0.7,0.4,1.5,0.4h2.3c0.7,0,1.2-0.2,1.5-0.4c0.2-0.2,0.4-0.7,0.4-1.5v-2.3c0-0.7-0.2-1.2-0.4-1.5
			c-0.2-0.2-0.7-0.4-1.5-0.4h-2.3c-0.6,0-1.1,0.2-1.5,0.4c-0.2,0.2-0.4,0.7-0.4,1.5V-29z M30.6-14.7c0.2-0.2,0.4-0.7,0.4-1.5v-1.3
			h-0.2l-3.1,3.1h1.5C29.8-14.3,30.3-14.5,30.6-14.7z M14.6-11.2l-6.1-5.9v5.1c0,2.7,0.5,4.8,1.4,6.7v-0.2l5.1-4.8
			C14.8-10.7,14.6-11.2,14.6-11.2z M20.1-6.1c-0.2,0-0.4,0-0.6,0l0,0l-5.4,5.2c1.8,0.8,3.9,1.2,6.5,1.2h6.2L20.1-6.1L20.1-6.1z
			 M61.6-6.1H28.8l4.4,3.9l-2.3,2.5c13.8,0,27.6,0,41.3,0C69.5-1.6,61.6-6.1,61.6-6.1z M83.8-2.8c2-2,3.1-5.1,3.1-9.1v-5.2v-0.4
			L76.3,0.2c0.1,0,0.2,0,0.2,0C79.6-0.1,82-1.1,83.8-2.8z M83.8-69.1c-2-2-5.2-3.1-9.3-3.1H20.8c-4.1,0-7.2,1-9.3,3.1
			S8.4-64,8.4-59.9V-21l2.3-2.4l4.1,3.5v-28.8c0-1.8,0.5-3.1,1.5-4.1s2.3-1.4,4-1.4h54.9c1.8,0,3.1,0.5,4,1.4c1,1,1.5,2.3,1.5,4.1
			v20.6v0.9l6.3,3.8v-1V-60C86.8-64.1,85.8-67.1,83.8-69.1z"/>
	</g>
	<g id="Ultralight-S" transform="matrix(1 0 0 1 512.504 696)">
		<path id="_x3C_Compound_Path_x3E__00000111877769691451598620000000129514453299497641_" d="M75.7-16.6l-12.2,3l-3,4.9l15.2,9.2
			l3-4.9L75.7-16.6z M70.1-7.2c-1-0.6-1.4-2-0.7-3.1c0.6-1,2-1.4,3.1-0.7s1.4,2,0.7,3.1C72.6-7,71.1-6.7,70.1-7.2z M73.7-30.1
			l-8.4,13.9l12.2-3l3,12.2l8.4-13.9L73.7-30.1z M81.7-19.2L75.4-23l1.1-1.9l6.3,3.8L81.7-19.2z M30.1,1.4L12.3-15.5l0,0l3-3.1l0,0
			L33.1-1.7l0,0L30.1,1.4L30.1,1.4z M11.6-16.3l-0.9-0.9l0,0l3-3.1l0,0l0.9,0.9l0,0L11.6-16.3L11.6-16.3z M9.9-18L9-18.9l0,0l3-3.1
			l0,0l0.9,0.9l0,0L9.9-18L9.9-18z M8.9-1.7L26.4-19l0,0l3.1,3.1l0,0L12,1.4l0,0L8.9-1.7L8.9-1.7z M27.2-19.8l0.9-0.9l0,0l3.1,3.1
			l0,0l-0.9,0.9l0,0L27.2-19.8L27.2-19.8z M28.9-21.4l0.9-0.9l0,0l3.1,3.1l0,0L32-18.3l0,0L28.9-21.4L28.9-21.4z M39.2-28.7
			c0,0.6,0.2,1.1,0.4,1.5c0.2,0.3,0.7,0.4,1.5,0.4h2.3c0.6,0,1.1-0.2,1.5-0.4c0.3-0.2,0.4-0.7,0.4-1.5V-31c0-0.7-0.2-1.2-0.4-1.5
			c-0.2-0.2-0.7-0.4-1.5-0.4h-2.3c-0.6,0-1.1,0.2-1.5,0.4c-0.2,0.2-0.4,0.7-0.4,1.5V-28.7z M41.1-39.7h2.3c0.6,0,1.1-0.2,1.5-0.4
			s0.4-0.7,0.4-1.5v-2.3c0-0.6-0.2-1.1-0.4-1.4s-0.7-0.4-1.5-0.4h-2.3c-0.6,0-1.1,0.2-1.5,0.4c-0.2,0.2-0.4,0.7-0.4,1.4v2.3
			c0,0.6,0.2,1.1,0.4,1.5C39.9-39.8,40.4-39.7,41.1-39.7z M39.2-15.8c0,0.7,0.2,1.2,0.4,1.5c0.2,0.2,0.7,0.4,1.5,0.4h2.3
			c0.6,0,1.1-0.2,1.5-0.4c0.3-0.2,0.4-0.7,0.4-1.5V-18c0-0.7-0.2-1.2-0.4-1.5c-0.2-0.2-0.7-0.4-1.5-0.4h-2.3c-0.6,0-1.1,0.2-1.5,0.4
			c-0.2,0.2-0.4,0.7-0.4,1.5V-15.8z M30.4-26.9c0.6,0,1.1-0.2,1.5-0.4c0.3-0.2,0.4-0.7,0.4-1.5V-31c0-0.7-0.2-1.2-0.4-1.5
			c-0.2-0.2-0.7-0.4-1.5-0.4h-2.3c-0.7,0-1.2,0.2-1.5,0.4c-0.2,0.2-0.4,0.7-0.4,1.5v2.3c0,0.6,0.2,1.1,0.4,1.5
			c0.2,0.3,0.7,0.4,1.5,0.4L30.4-26.9L30.4-26.9z M67.2-39.7h2.3c0.7,0,1.2-0.2,1.5-0.4s0.4-0.7,0.4-1.5v-2.3c0-0.6-0.2-1.1-0.4-1.4
			s-0.7-0.4-1.5-0.4h-2.3c-0.7,0-1.2,0.2-1.5,0.4s-0.4,0.7-0.4,1.4v2.3c0,0.6,0.2,1.1,0.4,1.5C66.1-39.9,66.6-39.7,67.2-39.7z
			 M65.4-28.7c0,0.6,0.2,1.1,0.4,1.5c0.2,0.2,0.7,0.4,1.5,0.4h2.3c0.7,0,1.2-0.2,1.5-0.4c0.2-0.2,0.4-0.7,0.4-1.5V-31
			c0-0.7-0.2-1.2-0.4-1.5c-0.2-0.2-0.7-0.4-1.5-0.4h-2.3c-0.7,0-1.2,0.2-1.5,0.4c-0.2,0.2-0.4,0.7-0.4,1.5V-28.7z M52.4-15.8
			c0,0.7,0.2,1.2,0.4,1.5c0.2,0.2,0.7,0.4,1.5,0.4h2.3c0.7,0,1.2-0.2,1.5-0.4c0.2-0.2,0.4-0.7,0.4-1.5V-18c0-0.7-0.2-1.2-0.4-1.5
			c-0.2-0.2-0.7-0.4-1.5-0.4h-2.3c-0.6,0-1.1,0.2-1.5,0.4c-0.2,0.2-0.4,0.7-0.4,1.5V-15.8z M54.2-39.7h2.3c0.7,0,1.2-0.2,1.5-0.4
			c0.2-0.2,0.4-0.7,0.4-1.5v-2.3c0-0.6-0.2-1.1-0.4-1.4c-0.2-0.2-0.7-0.4-1.5-0.4h-2.3c-0.6,0-1.1,0.2-1.5,0.4
			c-0.2,0.2-0.4,0.7-0.4,1.4v2.3c0,0.6,0.2,1.1,0.4,1.5C52.9-39.8,53.4-39.7,54.2-39.7z M52.4-28.7c0,0.6,0.2,1.1,0.4,1.5
			c0.2,0.3,0.7,0.4,1.5,0.4h2.3c0.7,0,1.2-0.2,1.5-0.4c0.2-0.2,0.4-0.7,0.4-1.5V-31c0-0.7-0.2-1.2-0.4-1.5c-0.2-0.2-0.7-0.4-1.5-0.4
			h-2.3c-0.6,0-1.1,0.2-1.5,0.4c-0.2,0.2-0.4,0.7-0.4,1.5V-28.7z M31.7-14.4c0.2-0.2,0.4-0.7,0.4-1.5v-1.3h-0.2l-3.1,3.1h1.5
			C30.9-14,31.4-14.2,31.7-14.4z M15.7-10.9l-6.1-5.9v5.1C9.6-9,10.1-6.9,11-5v-0.2l5.1-4.8C15.9-10.4,15.7-10.9,15.7-10.9z
			 M21.2-5.8c-0.2,0-0.4,0-0.6,0l0,0l-5.4,5.2c1.8,0.8,3.9,1.2,6.5,1.2h6.2L21.2-5.8L21.2-5.8z M62.7-5.8H29.9l4.4,3.9L32,0.6
			c13.8,0,27.6,0,41.3,0C70.6-1.3,62.7-5.8,62.7-5.8z M84.9-2.5c2-2,3.1-5.1,3.1-9.1v-5.2v-0.4L77.4,0.5c0.1,0,0.2,0,0.2,0
			C80.7,0.2,83.1-0.8,84.9-2.5z M84.9-68.8c-2-2-5.2-3.1-9.3-3.1H21.9c-4.1,0-7.2,1-9.3,3.1s-3.1,5.1-3.1,9.2v38.9l2.3-2.4l4.1,3.5
			v-28.8c0-1.8,0.5-3.1,1.5-4.1s2.3-1.4,4-1.4h54.9c1.8,0,3.1,0.5,4,1.4c1,1,1.5,2.3,1.5,4.1v20.6v0.9l6.3,3.8v-1v-35.6
			C87.9-63.8,86.9-66.8,84.9-68.8z"/>
	</g>
</g>
</svg>
