<?xml version="1.0" encoding="utf-8"?>
<!-- Uploaded to: SVG Repo, www.svgrepo.com, Generator: SVG Repo Mixer Tools -->
<svg width="800px" height="800px" viewBox="-0.53 0 337.019 337.019" xmlns="http://www.w3.org/2000/svg"><defs><style>.a{fill:#ffffff;}.b{fill:#febe69;}.c{fill:#c6c6c6;}.d{fill:#f2635f;}.e{fill:#74c66d;}.f{fill:#211715;}</style></defs><path class="a" d="M128.081,184.116V211.7H238.8c0-11.522,0-21.545.006-33.083H128.081Z"/><path class="b" d="M63.872,180.834a4.643,4.643,0,0,0-.7,2.454v23.745a4.662,4.662,0,0,0,4.66,4.669h60.246V178.619H67.844A4.665,4.665,0,0,0,63.872,180.834Z"/><path class="c" d="M268.638,179.531a7.833,7.833,0,0,0-3.68-.912H249.8c0,11.538,0,21.561,0,33.083h15.163a7.866,7.866,0,0,0,7.866-7.866V186.485A7.864,7.864,0,0,0,268.638,179.531Z"/><path class="d" d="M249.8,180.682v-2.063h-11c0,11.538,0,21.561,0,33.083h11C249.8,200.872,249.8,191.366,249.8,180.682Z"/><path class="e" d="M167.994,0a177.061,177.061,0,0,0-55.34,8.673A161.7,161.7,0,0,0,66.375,32.667a163.981,163.981,0,0,0-58.7,83.308A172.79,172.79,0,0,0,0,167.931a192.781,192.781,0,0,0,7.619,53.7,163.75,163.75,0,0,0,21.17,45.316A153.425,153.425,0,0,0,61.72,302.265a162.337,162.337,0,0,0,44.43,24.377,180.043,180.043,0,0,0,51.232,10.073,198.708,198.708,0,0,0,54.24-4.436,164.172,164.172,0,0,0,46.367-18.014,149.126,149.126,0,0,0,36.844-30.116A154.342,154.342,0,0,0,320.582,243.8a185.835,185.835,0,0,0,13.777-50.776,190.754,190.754,0,0,0-.625-53.855,167.772,167.772,0,0,0-15.77-49.007A162.614,162.614,0,0,0,288.58,49.043,160.592,160.592,0,0,0,247.462,18.76,166.934,166.934,0,0,0,196.489,2.25,191.074,191.074,0,0,0,167.994,0c-4.185,0-8.194,3.684-8,8a8.14,8.14,0,0,0,8,8c4.661.006,9.32.178,13.968.541q3.3.258,6.588.642.787.093,1.574.191c.3.038.6.085.9.116-.084-.009-2.112-.294-.786-.1,1.111.159,2.222.322,3.331.5a163.448,163.448,0,0,1,25.306,6.133q2.946.97,5.851,2.056,1.494.558,2.976,1.145.591.236,1.181.474c.327.133,2.37.986,1,.407-1.306-.552.259.114.6.261q.677.294,1.35.595,1.439.642,2.866,1.313,2.838,1.335,5.622,2.786A153.767,153.767,0,0,1,261.1,46.092q.575.428,1.144.861c.217.165.431.336.65.5.11.079-1.476-1.156-.81-.626.8.636,1.6,1.262,2.4,1.906q2.373,1.926,4.669,3.945,4.575,4.026,8.821,8.407,4.161,4.293,7.98,8.9.9,1.092,1.789,2.2.443.555.88,1.112c.166.213.329.428.5.639-.115-.144-1.154-1.509-.511-.655,1.219,1.619,2.425,3.245,3.59,4.9a156.576,156.576,0,0,1,12.31,20.78q1.309,2.655,2.517,5.359.334.747.66,1.5c.135.309.824,1.935.241.55-.559-1.328.086.213.227.556q.312.759.615,1.521,2.286,5.736,4.123,11.637a162.914,162.914,0,0,1,5.509,23.959q.11.73.214,1.461c.04.278.077.557.118.836.129.882-.171-1.228-.146-1.08.192,1.109.283,2.246.406,3.364q.349,3.174.577,6.358.454,6.342.428,12.705a176.185,176.185,0,0,1-1.723,25.967c-.022.146.275-1.954.143-1.071-.042.28-.079.561-.119.842q-.1.734-.215,1.468-.237,1.566-.5,3.127-.522,3.1-1.148,6.171-1.212,5.946-2.831,11.8-1.615,5.825-3.644,11.522-.969,2.713-2.032,5.39c-.364.914-.707,1.847-1.12,2.741-.068.147.768-1.79.423-1-.105.24-.206.482-.31.722q-.312.721-.631,1.438A151.092,151.092,0,0,1,295.4,257.043q-3.035,4.726-6.426,9.208c-.114.152-.23.3-.344.453-.735.975.548-.706.557-.717-.255.359-.545.7-.818,1.043q-.94,1.188-1.9,2.355-1.746,2.113-3.572,4.157a141.13,141.13,0,0,1-16.244,15.5c-.686.557-1.38,1.105-2.074,1.653-1.383,1.091,1.292-.979.268-.208-.456.343-.909.688-1.366,1.028q-2.214,1.645-4.492,3.206-4.744,3.25-9.738,6.114-4.968,2.852-10.146,5.309c-1.774.844-3.566,1.646-5.369,2.425-1.555.672,1.461-.6.273-.116-.428.175-.854.352-1.283.526q-1.381.558-2.773,1.09a163.884,163.884,0,0,1-23.19,6.918q-6.081,1.342-12.248,2.25c-.566.084-1.132.163-1.7.243-1.416.2,1.843-.237.42-.058-1.145.144-2.291.284-3.438.411q-3.264.359-6.54.606a198.612,198.612,0,0,1-26.309.253c-4.318-.248-8.618-.668-12.91-1.2-1.373-.169,2.111.3.226.031-.491-.07-.982-.139-1.473-.211q-1.569-.232-3.135-.494-3.107-.518-6.191-1.146a164.754,164.754,0,0,1-23.437-6.6q-2.73-1-5.424-2.091c-.431-.175-.861-.354-1.292-.532-1.159-.478.778.327.81.342-.242-.11-.489-.209-.732-.314q-1.368-.591-2.723-1.209-5.292-2.41-10.39-5.219Q85.147,299.226,80.251,296q-2.349-1.548-4.639-3.185-1.182-.846-2.347-1.714c-.362-.27-.721-.543-1.082-.815-1.318-.994,1.383,1.093.087.071a149.52,149.52,0,0,1-16.91-15.511q-3.888-4.181-7.441-8.655c-.282-.355-.553-.718-.84-1.068.018.022,1.283,1.677.539.7l-.354-.463q-.941-1.239-1.856-2.5-1.663-2.288-3.239-4.638a152.149,152.149,0,0,1-11.521-20.481q-.592-1.273-1.162-2.558-.285-.644-.566-1.289c-.106-.247-.211-.494-.318-.741-.528-1.222.62,1.512.258.609-.731-1.82-1.475-3.633-2.162-5.471q-2.161-5.78-3.883-11.712a175.73,175.73,0,0,1-5.23-24.495c-.04-.287-.075-.576-.119-.863.01.066.278,2.144.113.829-.063-.507-.128-1.013-.189-1.52q-.2-1.637-.367-3.278-.341-3.314-.566-6.639Q16,173.938,16,167.241q-.006-6.32.458-12.629.236-3.171.593-6.331c.11-.978.248-1.954.358-2.932-.3,2.648-.117.868-.029.249s.182-1.248.279-1.872a162.535,162.535,0,0,1,5.563-23.892q1.849-5.886,4.149-11.618.267-.666.541-1.329c.078-.189.157-.378.235-.568.48-1.171-.31.734-.33.779.42-.932.81-1.879,1.228-2.812q1.252-2.8,2.614-5.541A157.147,157.147,0,0,1,44.026,77.971c1.131-1.6,2.3-3.18,3.483-4.744,1.1-1.447-.952,1.207-.135.175.336-.425.669-.851,1.007-1.274q.951-1.188,1.924-2.359,3.833-4.605,8.014-8.905,4.26-4.378,8.86-8.41,2.227-1.953,4.531-3.819c.8-.644,1.614-1.26,2.405-1.909.1-.085-1.489,1.136-.807.625.218-.164.434-.333.652-.5q.654-.5,1.313-.985A153.859,153.859,0,0,1,96.161,32.837q2.7-1.4,5.46-2.691,1.432-.672,2.879-1.314.676-.3,1.356-.594c.194-.084.389-.167.583-.252,1.428-.62-1.41.578-.544.23,3.907-1.572,7.826-3.079,11.832-4.384a163.4,163.4,0,0,1,25.459-6.064q.779-.121,1.56-.236c.377-.055,2.155-.3.728-.108-1.5.2.4-.049.737-.091q.9-.112,1.809-.215,3.194-.363,6.4-.606c4.517-.344,9.046-.506,13.576-.512,4.184-.005,8.193-3.676,8-8A8.138,8.138,0,0,0,167.994,0Z"/><path class="f" d="M125.681,178.619V211.7c0,3.089,4.8,3.094,4.8,0V178.619c0-3.089-4.8-3.094-4.8,0Z"/><path class="f" d="M252.2,211.7q0-16.54,0-33.083c0-3.089-4.8-3.094-4.8,0q0,16.542,0,33.083c0,3.089,4.8,3.094,4.8,0Z"/><path class="f" d="M241.2,211.7q0-16.54,0-33.083c0-3.089-4.8-3.094-4.8,0q0,16.542,0,33.083c0,3.089,4.8,3.094,4.8,0Z"/><path class="f" d="M250.8,176.219H72.718c-1.612,0-3.233-.048-4.845,0-4.342.131-7.1,3.53-7.1,7.707v20.41c0,.87-.023,1.743,0,2.612a7.238,7.238,0,0,0,3.59,6.243c2.126,1.181,4.679.911,7.03.911H249.8c3.089,0,3.094-4.8,0-4.8H72.072a28.981,28.981,0,0,1-4.622-.027c-2.538-.428-1.875-3.987-1.875-5.813,0-6.613-.055-13.229,0-19.842.024-2.862,2.476-2.6,4.5-2.6H250.8c3.089,0,3.094-4.8,0-4.8Z"/><path class="f" d="M251.12,181.019h12.12c1.887,0,3.67-.033,5.226,1.265,1.661,1.387,1.958,3.27,1.958,5.286v13.961c0,1.567.167,3.228-.535,4.679a5.735,5.735,0,0,1-5.527,3.092H251.12c-3.088,0-3.094,4.8,0,4.8h12.813a11.234,11.234,0,0,0,8.167-2.892,10.856,10.856,0,0,0,3.124-8.106V188.451a14.1,14.1,0,0,0-1.191-6.763,10.417,10.417,0,0,0-9.216-5.469c-4.564-.059-9.132,0-13.7,0-3.088,0-3.094,4.8,0,4.8Z"/><path class="c" d="M231.318,86.029a50.432,50.432,0,0,1,8.781,1.783c6.944,2.478,10.893,7.553,10.8,14.926-.035,2.74-.615,6.592-2.979,9.2-.966,1.066-2.066,2.151-3.3,3.38a2.99,2.99,0,0,0-.176,4,19.24,19.24,0,0,1,4.463,13.4c-.127,2.278-1.494,4.364-2.482,5.839a9.856,9.856,0,0,1-1.545,1.825,2.987,2.987,0,0,0,.2,4.586c3.385,2.537,7.149,6.438,7.344,9.389.18,2.746-.786,5.024-2.73,5.806a5.422,5.422,0,0,1-3.592-.065c-5.683-1.978-11.736-4.626-25.621-5-.065,0-.132,0-.2-.012-7.426-.7-15.546-1.73-18.854-10.512a19.251,19.251,0,0,1-.818-10.081c.147-.849.32-1.726.508-2.6,1.173-5.492-.6-10.214-6.756-11.8-.974-.251-2.764-.721-3.145-.822-8.232-2.2-12.228-9.152-11.868-17.837a14.525,14.525,0,0,1,2.655-7.964,16.643,16.643,0,0,1,6.262-5.27C199.243,83.949,216.425,84.608,231.318,86.029Z"/></svg>