<svg id="Layer_1" enable-background="new 0 0 510 510" height="512" viewBox="0 0 510 510" width="512" xmlns="http://www.w3.org/2000/svg"><g id="XMLID_238_"><path id="XMLID_1013_" d="m192.111 339.102c40.861 30.689 99.498 27.781 137.135-9.855 37.611-37.611 40.563-96.248 9.855-137.135z"/><path id="XMLID_1080_" d="m255 150c-58.031 0-105 46.962-105 105 0 22.982 7.338 44.834 20.898 62.889l146.99-146.99c-18.054-13.561-39.906-20.899-62.888-20.899z"/><path id="XMLID_1092_" d="m255 0c-140.931 0-255 114.05-255 255 0 140.931 114.05 255 255 255 140.932 0 255-114.049 255-255 0-140.931-114.049-255-255-255zm95.459 350.459c-49.226 49.227-126.815 52.457-179.726 10.02l-32.406 32.406-21.213-21.213 32.406-32.406c-19.125-23.846-29.52-53.255-29.52-84.266 0-74.611 60.38-135 135-135 31.012 0 60.42 10.395 84.267 29.52l32.406-32.406 21.213 21.213-32.406 32.406c42.362 52.818 39.303 130.404-10.021 179.726z"/></g></svg>